<svg width="14" height="11" viewBox="0 0 14 11" fill="none" xmlns="http://www.w3.org/2000/svg">
<path d="M2.65851 1.24742C2.24288 0.883741 1.61112 0.925859 1.24743 1.3415C0.883751 1.75713 0.925868 2.38889 1.3415 2.75258L2.65851 1.24742ZM6 5.49999L6.65851 6.25257C6.87552 6.06268 7 5.78835 7 5.49999C7 5.21163 6.87552 4.9373 6.6585 4.74742L6 5.49999ZM1.34149 8.24742C0.925858 8.61111 0.883741 9.24287 1.24742 9.65851C1.61111 10.0741 2.24287 10.1163 2.65851 9.75258L1.34149 8.24742ZM1.3415 2.75258L5.3415 6.25257L6.6585 4.74742L2.65851 1.24742L1.3415 2.75258ZM5.34149 4.74742L1.34149 8.24742L2.65851 9.75258L6.65851 6.25257L5.34149 4.74742Z" fill="white"/>
<path d="M8.65851 1.24742C8.24288 0.883741 7.61112 0.925859 7.24743 1.3415C6.88375 1.75713 6.92587 2.38889 7.3415 2.75258L8.65851 1.24742ZM12 5.49999L12.6585 6.25257C12.8755 6.06268 13 5.78835 13 5.49999C13 5.21163 12.8755 4.9373 12.6585 4.74742L12 5.49999ZM7.34149 8.24742C6.92586 8.61111 6.88374 9.24287 7.24742 9.65851C7.61111 10.0741 8.24287 10.1163 8.65851 9.75258L7.34149 8.24742ZM7.3415 2.75258L11.3415 6.25257L12.6585 4.74742L8.65851 1.24742L7.3415 2.75258ZM11.3415 4.74742L7.34149 8.24742L8.65851 9.75258L12.6585 6.25257L11.3415 4.74742Z" fill="white"/>
</svg>
