<svg width="559" height="517" viewBox="0 0 559 517" fill="none" xmlns="http://www.w3.org/2000/svg">
<g opacity="0.2">
<path fill-rule="evenodd" clip-rule="evenodd" d="M144.946 246.356C144.946 322.907 207.616 384.96 284.928 384.96C362.24 384.96 424.91 322.907 424.91 246.356C424.91 169.805 362.24 107.751 284.928 107.751V177.054C323.521 177.054 354.919 208.143 354.919 246.356C354.919 284.569 323.521 315.658 284.928 315.658C246.335 315.658 214.937 284.569 214.937 246.356V126.442V-22.0794C190.097 -15.7244 166.629 -6.00824 144.946 6.43844V246.356Z" fill="white"/>
<path fill-rule="evenodd" clip-rule="evenodd" d="M279.467 -33V35.75C395.041 35.75 489.068 128.274 489.068 242C489.068 355.726 395.041 448.25 279.467 448.25C163.894 448.25 69.8669 355.726 69.8669 242H0C0 393.876 125.118 517 279.467 517C433.817 517 558.935 393.876 558.935 242C558.935 90.1244 433.817 -33 279.467 -33Z" fill="white"/>
</g>
</svg>
