<svg width="156" height="124" viewBox="0 0 156 124" fill="none" xmlns="http://www.w3.org/2000/svg">
<path class="custom-color" opacity="0.15" d="M4.40324 80.3872C-13.1139 54.1115 25.8436 24.7336 47.512 13.3292C119.36 -23.6211 150.152 25.646 155.626 72.8603C161.1 120.075 104.99 133.76 86.5151 117.338C68.0399 100.915 26.2997 113.232 4.40324 80.3872Z" fill="#0DB3AC"/>
<path fill-rule="evenodd" clip-rule="evenodd" d="M73.306 43.3512C73.3194 43.8398 72.9341 44.2468 72.4455 44.2602C71.1967 44.2944 69.9121 44.4477 68.5991 44.747C68.1225 44.8557 67.648 44.5574 67.5394 44.0808C67.4307 43.6041 67.729 43.1297 68.2056 43.021C69.6357 42.6949 71.0361 42.5279 72.397 42.4906C72.8857 42.4772 73.2927 42.8625 73.306 43.3512ZM75.5878 43.5098C75.6664 43.0273 76.1212 42.6999 76.6037 42.7785C78.0312 43.011 79.3932 43.3685 80.6768 43.8074C81.1394 43.9656 81.3861 44.4688 81.2279 44.9314C81.0698 45.3939 80.5666 45.6407 80.104 45.4825C78.9045 45.0723 77.6389 44.7408 76.3191 44.5258C75.8366 44.4472 75.5092 43.9923 75.5878 43.5098ZM65.3702 44.7995C65.5651 45.2478 65.3597 45.7693 64.9114 45.9642C64.3288 46.2175 63.7415 46.5025 63.1503 46.8216C62.6097 47.1133 62.115 47.4699 61.664 47.8867C61.3049 48.2184 60.7449 48.1964 60.4132 47.8373C60.0814 47.4783 60.1035 46.9183 60.4625 46.5865C61.0189 46.0723 61.6341 45.6282 62.3096 45.2637C62.9442 44.9212 63.5764 44.6142 64.2055 44.3407C64.6538 44.1458 65.1753 44.3512 65.3702 44.7995ZM83.3323 45.8332C83.5552 45.3982 84.0887 45.2262 84.5237 45.4492C85.8542 46.1309 87.0547 46.8663 88.1035 47.5815C88.5073 47.8569 88.6115 48.4076 88.336 48.8115C88.0606 49.2154 87.5099 49.3195 87.106 49.0441C86.1095 48.3645 84.9724 47.6683 83.7164 47.0246C83.2813 46.8017 83.1094 46.2683 83.3323 45.8332ZM59.0886 49.7701C59.5333 49.9731 59.7293 50.4982 59.5263 50.9429C59.0272 52.0365 58.6499 53.2849 58.3929 54.6611C58.3032 55.1416 57.8408 55.4584 57.3603 55.3687C56.8798 55.2789 56.5629 54.8166 56.6527 54.3361C56.9311 52.8456 57.3465 51.4553 57.9158 50.2079C58.1188 49.7632 58.6438 49.5672 59.0886 49.7701ZM90.1474 50.209C90.4692 49.8409 91.0284 49.8035 91.3964 50.1252C91.8855 50.5529 92.2649 50.9109 92.524 51.1641C92.6535 51.2907 92.753 51.3911 92.8212 51.461C92.8553 51.496 92.8816 51.5233 92.8998 51.5425C92.9073 51.5504 92.9135 51.5569 92.9183 51.5619C92.9229 51.5666 92.9287 51.5724 92.9358 51.5795C92.9535 51.5974 92.9789 51.6232 93.0114 51.6566C93.0765 51.7236 93.1703 51.8215 93.289 51.9489C93.5263 52.2037 93.8633 52.5768 94.2693 53.0571C94.5849 53.4304 94.538 53.9889 94.1647 54.3045C93.7913 54.6201 93.2328 54.5732 92.9172 54.1999C92.5312 53.7432 92.2133 53.3914 91.9936 53.1556C91.8838 53.0377 91.7986 52.9488 91.7418 52.8904C91.7135 52.8612 91.6922 52.8396 91.6785 52.8258L91.6637 52.8109L91.6607 52.8079L91.6607 52.8079C91.6525 52.7998 91.6444 52.7915 91.6366 52.7831C91.6365 52.783 91.6364 52.7829 91.6363 52.7828C91.6363 52.7828 91.6363 52.7828 91.6362 52.7828M91.6362 52.7827L91.6333 52.7797C91.6317 52.778 91.6295 52.7756 91.6268 52.7727C91.6244 52.7703 91.6217 52.7674 91.6186 52.7641C91.6048 52.7496 91.5831 52.7271 91.5538 52.697C91.4951 52.6368 91.4056 52.5464 91.2867 52.4302C91.0487 52.1977 90.6934 51.8621 90.2311 51.458C89.8631 51.1362 89.8256 50.577 90.1474 50.209M95.4661 56.0194C95.8696 55.7433 96.4204 55.8466 96.6965 56.2501C97.3848 57.2561 98.1033 58.4036 98.791 59.6712C99.0241 60.1009 98.8647 60.6382 98.435 60.8713C98.0053 61.1044 97.468 60.945 97.2349 60.5153C96.5799 59.3079 95.894 58.2122 95.2355 57.2497C94.9594 56.8463 95.0627 56.2954 95.4661 56.0194ZM57.132 57.7001C57.6207 57.7138 58.0057 58.121 57.992 58.6097C57.956 59.8946 57.9991 61.2384 58.1173 62.6224C58.1589 63.1095 57.7977 63.5381 57.3106 63.5797C56.8235 63.6213 56.395 63.2601 56.3534 62.7731C56.2301 61.3292 56.1844 59.9183 56.2224 58.5601C56.2361 58.0714 56.6433 57.6864 57.132 57.7001ZM99.352 62.812C99.8059 62.6305 100.321 62.8512 100.503 63.3051C100.988 64.5183 101.416 65.8029 101.75 67.1463C101.868 67.6207 101.58 68.101 101.105 68.2192C100.631 68.3373 100.151 68.0485 100.032 67.5742C99.7194 66.317 99.3176 65.1092 98.8589 63.9626C98.6774 63.5087 98.8981 62.9936 99.352 62.812ZM57.621 65.9038C58.1024 65.8183 58.5618 66.1393 58.6473 66.6206C58.8788 67.9247 59.1683 69.2449 59.5123 70.5668C59.6354 71.0399 59.3517 71.5232 58.8786 71.6463C58.4055 71.7694 57.9221 71.4857 57.799 71.0126C57.4438 69.6472 57.1442 68.2816 56.9042 66.93C56.8188 66.4487 57.1397 65.9892 57.621 65.9038ZM101.465 70.3396C101.952 70.2979 102.381 70.6589 102.423 71.1459C102.536 72.4684 102.543 73.8302 102.415 75.221C102.37 75.7078 101.939 76.0662 101.452 76.0214C100.965 75.9766 100.607 75.5457 100.652 75.0589C100.77 73.7789 100.764 72.5222 100.659 71.2972C100.617 70.8101 100.978 70.3814 101.465 70.3396ZM59.5534 73.8916C60.016 73.7338 60.519 73.981 60.6769 74.4436C61.1124 75.7206 61.5959 76.9846 62.1239 78.2227C62.3156 78.6723 62.1065 79.1923 61.6569 79.3841C61.2072 79.5759 60.6872 79.3668 60.4954 78.9171C59.95 77.638 59.4508 76.3329 59.0013 75.0151C58.8435 74.5524 59.0907 74.0494 59.5534 73.8916ZM101.06 78.1322C101.53 78.2653 101.804 78.7545 101.671 79.2249C101.315 80.482 100.837 81.751 100.22 83.0249C100.007 83.4648 99.4775 83.6487 99.0375 83.4355C98.5976 83.2223 98.4137 82.6929 98.6269 82.253C99.1991 81.0721 99.6399 79.9002 99.9672 78.7431C100.1 78.2727 100.589 77.9992 101.06 78.1322ZM62.6569 81.499C63.0899 81.2721 63.6249 81.4392 63.8517 81.8723C64.4863 83.0836 65.1639 84.2516 65.8805 85.3621C66.1456 85.7729 66.0275 86.3207 65.6167 86.5858C65.206 86.8509 64.6581 86.7328 64.3931 86.322C63.6457 85.1638 62.9413 83.9494 62.2836 82.6938C62.0567 82.2607 62.2239 81.7258 62.6569 81.499ZM97.9434 85.292C98.3451 85.5707 98.4448 86.1222 98.1661 86.5238C97.4364 87.5755 96.6024 88.625 95.6552 89.6691C95.3267 90.0311 94.7669 90.0583 94.4049 89.7299C94.0428 89.4014 94.0156 88.8416 94.3441 88.4796C95.242 87.4899 96.0276 86.5004 96.7116 85.5146C96.9903 85.113 97.5418 85.0133 97.9434 85.292ZM66.9838 88.4839C67.3632 88.1756 67.9207 88.2332 68.229 88.6126C69.0958 89.6793 70.0021 90.6572 70.9422 91.5288C71.3007 91.8612 71.3218 92.4212 70.9895 92.7797C70.6571 93.1382 70.0971 93.1594 69.7386 92.827C68.731 91.8927 67.7684 90.8529 66.8551 89.729C66.5468 89.3496 66.6044 88.7921 66.9838 88.4839ZM92.8757 91.2341C93.2006 91.5994 93.1679 92.1589 92.8026 92.4838C92.3111 92.921 91.7978 93.3566 91.262 93.7905C90.6809 94.261 90.0998 94.6882 89.5191 95.0735C89.1117 95.3438 88.5624 95.2326 88.2922 94.8253C88.0219 94.4179 88.1331 93.8686 88.5404 93.5983C89.0721 93.2456 89.6081 92.8518 90.148 92.4146C90.6631 91.9976 91.1555 91.5796 91.626 91.1611C91.9913 90.8362 92.5508 90.8689 92.8757 91.2341ZM72.8423 94.2206C73.1004 93.8055 73.6463 93.6782 74.0614 93.9364C75.2026 94.6461 76.3753 95.1929 77.5724 95.5564C78.0402 95.6985 78.3042 96.1928 78.1622 96.6606C78.0202 97.1284 77.5258 97.3924 77.058 97.2504C75.6959 96.8367 74.3828 96.221 73.1265 95.4397C72.7114 95.1816 72.5841 94.6358 72.8423 94.2206ZM86.2096 95.8972C86.3733 96.3578 86.1327 96.8639 85.6721 97.0277C84.2274 97.5412 82.7963 97.8059 81.3888 97.8448C80.9001 97.8583 80.4931 97.4731 80.4796 96.9844C80.4661 96.4957 80.8513 96.0886 81.34 96.0752C82.5559 96.0416 83.8036 95.813 85.0791 95.3596C85.5397 95.1959 86.0459 95.4365 86.2096 95.8972Z" fill="#312F2F"/>
<path d="M115.459 55.3033H52.1971V86.3545H115.459V55.3033Z" fill="#312F2F"/>
<path fill-rule="evenodd" clip-rule="evenodd" d="M51.3119 55.3034C51.3119 54.8145 51.7082 54.4182 52.197 54.4182H115.459C115.948 54.4182 116.344 54.8145 116.344 55.3034V86.3546C116.344 86.8434 115.948 87.2397 115.459 87.2397H52.197C51.7082 87.2397 51.3119 86.8434 51.3119 86.3546V55.3034ZM53.0822 56.1885V85.4694H114.574V56.1885H53.0822Z" fill="#312F2F"/>
<path d="M118.583 52.1791H55.3214V83.2303H118.583V52.1791Z" fill="white"/>
<path fill-rule="evenodd" clip-rule="evenodd" d="M54.4363 52.1789C54.4363 51.69 54.8326 51.2937 55.3214 51.2937H118.583C119.072 51.2937 119.469 51.69 119.469 52.1789V83.23C119.469 83.7189 119.072 84.1152 118.583 84.1152H55.3214C54.8326 84.1152 54.4363 83.7189 54.4363 83.23V52.1789ZM56.2066 53.064V82.3449H117.698V53.064H56.2066Z" fill="#312F2F"/>
<path d="M92.4122 73.0515L93.1369 74.5815C92.4605 74.7909 91.7841 74.8875 91.0593 74.8875C87.806 74.8875 85.0198 72.6811 84.1823 69.6533H82.1852V68.1233H83.9246C83.9246 68.0105 83.9246 67.8817 83.9246 67.7528C83.9246 67.624 83.9246 67.5113 83.9246 67.3663H82.1852V65.8363H84.1823C85.0198 62.8246 87.806 60.6021 91.0593 60.6021C91.7841 60.6021 92.4927 60.7148 93.1691 60.9242L92.4444 62.4542C92.0095 62.3414 91.5425 62.277 91.0593 62.277C88.724 62.277 86.727 63.7587 85.9378 65.8202H89.948V67.3502H85.6157C85.6157 67.4791 85.5996 67.5918 85.5996 67.7367C85.5996 67.8495 85.6157 67.9783 85.6157 68.1072H89.948V69.6372H85.9378C86.727 71.6987 88.7079 73.1965 91.0593 73.1965C91.5264 73.2287 91.9934 73.1643 92.4122 73.0515Z" fill="#AEAEAE"/>
<path d="M109.564 88.3837L103.203 82.5858L96.8573 76.804L95.0213 85.1949L93.1852 93.6019L98.9832 91.7498L101.318 99.0616L106.086 97.5316L103.766 90.2358L109.564 88.3837Z" fill="white"/>
<path fill-rule="evenodd" clip-rule="evenodd" d="M96.5888 75.9604C96.8901 75.8645 97.2197 75.9366 97.4535 76.1496L103.799 81.9314L110.161 87.7294C110.394 87.9423 110.497 88.2636 110.429 88.5724C110.362 88.8812 110.135 89.1306 109.834 89.2268L104.878 90.81L106.929 97.2634C107.077 97.7283 106.821 98.2252 106.356 98.3743L101.589 99.9043C101.365 99.9761 101.122 99.956 100.913 99.8485C100.704 99.7409 100.547 99.5547 100.475 99.3308L98.4093 92.8622L93.4546 94.445C93.1533 94.5412 92.8235 94.4694 92.5895 94.2565C92.3556 94.0436 92.253 93.722 92.3205 93.4129L95.9926 76.6147C96.0602 76.3058 96.2875 76.0564 96.5888 75.9604ZM97.3943 78.4907L94.3774 92.2918L98.7139 90.9065C98.9375 90.8351 99.1804 90.8554 99.389 90.963C99.5976 91.0706 99.755 91.2567 99.8264 91.4804L101.892 97.9478L104.975 96.9584L102.923 90.5039C102.775 90.0385 103.032 89.5412 103.497 89.3926L107.837 88.0064L97.3943 78.4907Z" fill="#312F2F"/>
</svg>
