<svg width="9" height="7" viewBox="0 0 9 7" fill="none" xmlns="http://www.w3.org/2000/svg">
<path d="M1.84309 2.33237C1.66124 2.12455 1.34536 2.10349 1.13754 2.28533C0.929726 2.46717 0.908668 2.78306 1.09051 2.99087L1.84309 2.33237ZM4.0918 5.66162L3.71551 5.99087C3.81045 6.09938 3.94762 6.16162 4.0918 6.16162C4.23598 6.16162 4.37314 6.09938 4.46809 5.99087L4.0918 5.66162ZM8.84309 0.990873C9.02493 0.783055 9.00387 0.467174 8.79605 0.285333C8.58823 0.103492 8.27235 0.12455 8.09051 0.332369L8.84309 0.990873ZM1.09051 2.99087L3.71551 5.99087L4.46809 5.33237L1.84309 2.33237L1.09051 2.99087ZM4.46809 5.99087L8.84309 0.990873L8.09051 0.332369L3.71551 5.33237L4.46809 5.99087Z" fill="#FF6308"/>
</svg>
