<svg width="107" height="102" viewBox="0 0 107 102" fill="none" xmlns="http://www.w3.org/2000/svg">
<circle class="custom-color" opacity="0.15" cx="73.2095" cy="33.8752" r="33.7905" fill="#0DB3AC"/>
<path d="M11.5715 76.5196C11.4777 76.5196 11.3111 76.4144 11.1642 76.3216C10.9433 76.1818 10.6927 76.0234 10.3955 76.0034C10.373 76.0017 10.3505 76.0011 10.3282 76.0011C10.0468 76.0011 9.79318 76.1161 9.56891 76.2176C9.42698 76.282 9.26607 76.3548 9.17562 76.3548C9.06557 76.3408 8.91467 76.2114 8.78169 76.0974C8.58556 75.9292 8.36317 75.7385 8.07638 75.6755C8.0026 75.6591 7.92319 75.6507 7.84107 75.6507C7.62368 75.6507 7.41317 75.7089 7.22768 75.7599C7.09241 75.7975 6.95256 75.836 6.85897 75.836C6.83271 75.836 6.81896 75.8327 6.81291 75.831C6.71724 75.8006 6.5899 75.6432 6.47756 75.5042C6.31936 75.3087 6.14012 75.0874 5.88063 74.9733C5.6697 74.8804 5.44606 74.8696 5.2962 74.8696C5.21283 74.8696 5.12759 74.8735 5.04338 74.8773C4.97377 74.8806 4.90457 74.8839 4.83767 74.8839C4.68698 74.8839 4.64238 74.8635 4.63237 74.8573C4.54275 74.8012 4.46396 74.6061 4.39435 74.4337C4.30765 74.2188 4.20948 73.975 4.02294 73.7976C3.82431 73.6082 3.5717 73.5065 3.34889 73.4168C3.22592 73.3674 3.01979 73.2843 2.98623 73.2311C2.98248 73.224 2.97915 73.2094 2.97706 73.1911C2.97664 73.1876 2.97623 73.184 2.97581 73.1805C2.97477 73.1648 2.97519 73.149 2.97644 73.1327C2.97706 73.1227 2.97748 73.1127 2.97748 73.1027V71.1844C2.97748 71.1761 2.97727 71.1675 2.97664 71.1592C2.97581 71.144 2.97539 71.1287 2.97644 71.1135C2.97706 71.1041 2.97748 71.0946 2.97748 71.085V54.0148H20.1667V71.0823C20.1667 71.0919 20.1671 71.1014 20.1677 71.1108C20.169 71.1279 20.1688 71.1454 20.1677 71.1631C20.1671 71.1723 20.1667 71.1817 20.1667 71.1909C20.1667 71.1909 20.1682 73.1642 20.1679 73.1757C20.1669 73.1813 20.1663 73.1874 20.1656 73.193C20.1636 73.2117 20.1602 73.2255 20.1554 73.2347C20.1223 73.287 19.916 73.3695 19.7926 73.4193C19.5698 73.5087 19.3169 73.61 19.1175 73.7997C18.9307 73.9769 18.8326 74.2207 18.7456 74.4358C18.6762 74.608 18.5973 74.8035 18.507 74.8591C18.4964 74.8656 18.452 74.8862 18.3019 74.8862C18.2348 74.8862 18.1654 74.8825 18.0952 74.8793C18.0103 74.8752 17.9249 74.8712 17.8407 74.8712C17.6919 74.8712 17.4695 74.8821 17.2585 74.9746C16.9993 75.0886 16.8206 75.3097 16.6633 75.5048C16.5511 75.6434 16.4242 75.8008 16.3292 75.8306C16.3227 75.8327 16.3085 75.8358 16.2819 75.8358C16.1883 75.8358 16.0484 75.7973 15.9129 75.7602C15.7272 75.7091 15.5174 75.6514 15.3002 75.6514C15.2179 75.6514 15.1386 75.6597 15.0638 75.6764C14.7779 75.7395 14.5561 75.93 14.3606 76.098C14.228 76.2118 14.078 76.3406 13.9836 76.354C13.9829 76.354 13.9821 76.354 13.9815 76.354C13.8756 76.354 13.7159 76.2814 13.5746 76.2176C13.3508 76.1161 13.0969 76.0011 12.816 76.0011C12.7937 76.0011 12.7712 76.0017 12.7489 76.0034C12.4512 76.0236 12.2005 76.1818 11.9796 76.3214C11.8326 76.4142 11.6657 76.5196 11.5715 76.5196Z" fill="white"/>
<path d="M19.7496 54.4315V71.0821C19.7496 71.1028 19.7498 71.1146 19.7515 71.1353C19.7502 71.1536 19.7496 71.1722 19.7496 71.1905V72.9863C19.7111 73.0025 19.6708 73.0186 19.6375 73.0319C19.3926 73.1301 19.0875 73.2524 18.8305 73.4969C18.5781 73.7366 18.4566 74.0376 18.3588 74.2794C18.3359 74.336 18.3057 74.4109 18.2786 74.4688C18.2252 74.4682 18.1702 74.4653 18.1149 74.4626C18.0237 74.4582 17.9313 74.454 17.8409 74.454C17.6541 74.454 17.3734 74.4684 17.0899 74.5928C16.7383 74.7475 16.5165 75.022 16.3383 75.2427C16.2987 75.2919 16.2456 75.3575 16.2026 75.4046C16.1464 75.3917 16.0765 75.3725 16.0236 75.358C15.8231 75.3027 15.5734 75.2342 15.3 75.2342C15.1874 75.2342 15.0776 75.2458 14.974 75.2687C14.5855 75.3546 14.3099 75.5912 14.0888 75.7813C14.0411 75.8223 13.9769 75.8773 13.9266 75.9157C13.871 75.8936 13.8001 75.8615 13.7468 75.8373C13.4975 75.7244 13.1869 75.5837 12.8162 75.5837C12.7843 75.5837 12.7524 75.5847 12.7205 75.5868C12.3178 75.6141 12.0068 75.8107 11.7569 75.9684C11.7019 76.0032 11.6275 76.0501 11.5717 76.0808C11.5158 76.0501 11.4416 76.0032 11.3868 75.9686C11.1371 75.8107 10.8263 75.6141 10.423 75.5868C10.3913 75.5847 10.3597 75.5837 10.3278 75.5837C9.95657 75.5837 9.64602 75.7244 9.39653 75.8375C9.34318 75.8617 9.27231 75.8938 9.21666 75.9159C9.16602 75.8776 9.10099 75.8219 9.05284 75.7804C8.83108 75.5903 8.55491 75.3536 8.16724 75.2681C8.06303 75.245 7.9534 75.2333 7.84106 75.2333C7.56719 75.2333 7.31729 75.3023 7.11657 75.3577C7.06363 75.3723 6.99402 75.3915 6.93837 75.4044C6.89502 75.3569 6.84166 75.2908 6.80164 75.2414C6.62302 75.0205 6.40064 74.7456 6.04944 74.5914C5.76577 74.4663 5.48377 74.4517 5.29619 74.4517C5.20615 74.4517 5.11445 74.4557 5.02357 74.4601C4.96855 74.4628 4.91394 74.4655 4.86079 74.4661C4.83391 74.4082 4.80368 74.3335 4.78097 74.2771C4.68342 74.0353 4.56212 73.7343 4.31097 73.4955C4.05398 73.2504 3.74926 73.1278 3.50457 73.0292C3.47164 73.0161 3.43204 73 3.39411 72.9842V71.1836C3.39411 71.1667 3.39327 71.1584 3.39223 71.1417C3.39348 71.1228 3.39411 71.1036 3.39411 71.0844V54.4309H19.7496V54.4315ZM20.5833 53.5978H2.56062V71.085C2.55832 71.1176 2.55853 71.1507 2.56062 71.1842V73.1028C2.5577 73.1422 2.55749 73.181 2.56062 73.2189V73.2374H2.56291C2.5702 73.3027 2.58646 73.3658 2.61773 73.4252C2.79426 73.7612 3.42037 73.7983 3.73592 74.0993C4.01105 74.3606 4.04544 74.9822 4.41289 75.211C4.52898 75.2831 4.67759 75.3004 4.83807 75.3004C4.98564 75.3004 5.14383 75.2858 5.29661 75.2858C5.44542 75.2858 5.58924 75.2998 5.71346 75.3546C6.07028 75.5114 6.28413 76.1002 6.68701 76.2281C6.74162 76.2454 6.79935 76.2527 6.85917 76.2527C7.16243 76.2527 7.52342 76.0672 7.84127 76.0672C7.89108 76.0672 7.93964 76.0718 7.98696 76.0822C8.374 76.1675 8.69018 76.709 9.10328 76.7665C9.12725 76.7698 9.15163 76.7715 9.17602 76.7715C9.54035 76.7715 9.94948 76.4176 10.3282 76.4176C10.3413 76.4176 10.3542 76.418 10.3674 76.4188C10.7665 76.4459 11.1579 76.9364 11.5719 76.9364C11.986 76.9364 12.3778 76.4461 12.7774 76.4188C12.7905 76.418 12.8034 76.4176 12.8166 76.4176C13.1949 76.4176 13.604 76.7715 13.9687 76.7715C13.9931 76.7715 14.0173 76.7698 14.0415 76.7665C14.4535 76.7092 14.7683 76.1683 15.1543 76.0831C15.2016 76.0726 15.2504 76.0681 15.3004 76.0681C15.6182 76.0681 15.979 76.2527 16.2823 76.2527C16.3423 76.2527 16.4 76.2454 16.4548 76.2281C16.8571 76.101 17.0701 75.5128 17.4261 75.3561C17.5499 75.3017 17.6929 75.2879 17.8411 75.2879C17.9945 75.2879 18.1535 75.3027 18.3019 75.3027C18.4624 75.3027 18.6106 75.2854 18.7267 75.2133C19.0943 74.9853 19.1293 74.3631 19.4047 74.1016C19.7213 73.8006 20.3476 73.7641 20.5245 73.4281C20.5564 73.3677 20.5729 73.3035 20.5802 73.2372H20.5835V73.2093C20.5854 73.1793 20.5852 73.1487 20.5835 73.1178V71.1907C20.586 71.154 20.5862 71.1178 20.5835 71.0823V53.5978H20.5833Z" fill="#312F2F"/>
<path d="M11.5715 59.0416C11.4775 59.0416 11.311 58.9365 11.164 58.8436C10.9429 58.7041 10.6926 58.5459 10.3954 58.5257C10.3731 58.5243 10.3499 58.5234 10.327 58.5234C10.0458 58.5234 9.79219 58.6385 9.56813 58.7402C9.4264 58.8046 9.26592 58.8773 9.17546 58.8773C9.06562 58.8629 8.91472 58.7337 8.78154 58.6197C8.58562 58.4517 8.36302 58.2612 8.07623 58.1979C8.00224 58.1814 7.92283 58.1731 7.8405 58.1731C7.62332 58.1731 7.41302 58.231 7.22773 58.2821C7.09246 58.3194 6.95261 58.3577 6.85903 58.3577C6.83256 58.3577 6.81859 58.3546 6.81255 58.3527C6.71667 58.3223 6.58933 58.1647 6.47699 58.0257C6.319 57.8304 6.14017 57.6093 5.88152 57.4951C5.66913 57.4019 5.44591 57.3913 5.29626 57.3913C5.2131 57.3913 5.12827 57.3952 5.04427 57.399C4.97466 57.4023 4.90567 57.4056 4.83897 57.4056C4.68745 57.4056 4.64285 57.385 4.63263 57.379C4.54218 57.3227 4.4636 57.1276 4.39399 56.9552C4.30749 56.7403 4.20911 56.4969 4.0232 56.3195C3.82395 56.1301 3.57175 56.0286 3.34936 55.9394C3.22597 55.8898 3.01984 55.8068 2.98629 55.7535C2.94606 55.6768 3.01359 55.4531 3.06278 55.2899C3.12239 55.0927 3.18408 54.8889 3.18408 54.6717C3.18408 54.4546 3.1228 54.2505 3.06361 54.0533C3.01151 53.8799 2.94648 53.6642 2.98795 53.586C3.02109 53.5331 3.22743 53.4504 3.35082 53.401C3.57363 53.3116 3.82645 53.21 4.02591 53.0204C4.21266 52.8434 4.31103 52.5996 4.39795 52.3845C4.46756 52.2121 4.54655 52.017 4.63701 51.9605C4.64639 51.9547 4.69078 51.9345 4.84043 51.9345C4.90734 51.9345 4.97674 51.938 5.04677 51.9414C5.13139 51.9455 5.21664 51.9493 5.30084 51.9493C5.45049 51.9493 5.67372 51.9384 5.88548 51.8453C6.14413 51.7315 6.32296 51.5103 6.48053 51.315C6.59245 51.1764 6.71938 51.0193 6.81442 50.9893C6.82047 50.9874 6.83464 50.9843 6.86132 50.9843C6.9549 50.9843 7.09517 51.0228 7.23065 51.0601C7.41656 51.1114 7.62686 51.1694 7.84425 51.1694C7.92595 51.1694 8.00474 51.161 8.07873 51.1448C8.36531 51.0814 8.58687 50.8909 8.78279 50.7229C8.91556 50.6089 9.06562 50.4797 9.16066 50.4663C9.16108 50.4663 9.16171 50.4663 9.16233 50.4663C9.26613 50.4663 9.4262 50.5389 9.5673 50.6031C9.79156 50.7048 10.0456 50.8202 10.3272 50.8202C10.3495 50.8202 10.372 50.8196 10.3941 50.818C10.6922 50.7977 10.9427 50.6393 11.1638 50.4995C11.3108 50.4065 11.4775 50.3013 11.5713 50.3013C11.6655 50.3013 11.8323 50.4065 11.9792 50.4997C12.2001 50.6393 12.4504 50.7977 12.7479 50.818C12.7704 50.8194 12.7929 50.8202 12.8152 50.8202C13.0968 50.8202 13.3508 50.705 13.5751 50.6031C13.717 50.5387 13.8779 50.4655 13.9686 50.4655C14.0776 50.4797 14.2287 50.6089 14.3617 50.7231C14.558 50.8911 14.7804 51.0816 15.0672 51.1448C15.141 51.1612 15.2206 51.1696 15.3029 51.1696C15.5199 51.1696 15.7302 51.1116 15.9155 51.0608C16.0508 51.0235 16.1908 50.9851 16.2844 50.9851C16.3109 50.9851 16.3248 50.9882 16.3309 50.9901C16.4268 51.0205 16.5541 51.1779 16.6665 51.3171C16.8244 51.5124 17.0033 51.7336 17.2619 51.8476C17.4739 51.9409 17.6973 51.9518 17.8472 51.9518C17.9306 51.9518 18.0158 51.9478 18.1 51.9439C18.1698 51.9405 18.2388 51.9372 18.3057 51.9372C18.4564 51.9372 18.501 51.9576 18.5108 51.9639C18.6011 52.0197 18.6794 52.215 18.7488 52.3872C18.8353 52.6025 18.9335 52.8463 19.12 53.0237C19.3193 53.213 19.5715 53.3143 19.7937 53.4037C19.9171 53.4533 20.1236 53.5362 20.1572 53.5896C20.1974 53.6665 20.1299 53.8901 20.0805 54.0535C20.0211 54.2507 19.9594 54.4548 19.9594 54.6721C19.9594 54.8889 20.0206 55.0925 20.0798 55.2895C20.1319 55.4629 20.197 55.6786 20.1555 55.757C20.1221 55.8097 19.916 55.8925 19.7926 55.9419C19.5698 56.0313 19.3168 56.1328 19.1173 56.3227C18.9306 56.4998 18.8322 56.7435 18.7455 56.9586C18.6757 57.1309 18.5969 57.3262 18.5062 57.3827C18.4973 57.3883 18.4529 57.4086 18.303 57.4086C18.2359 57.4086 18.1665 57.405 18.0965 57.4017C18.0118 57.3975 17.9264 57.3938 17.8424 57.3938C17.6927 57.3938 17.4693 57.4046 17.2578 57.4978C16.9991 57.6116 16.8205 57.8327 16.6629 58.0278C16.5508 58.1666 16.4239 58.3237 16.3288 58.3538C16.3228 58.3556 16.3084 58.359 16.2819 58.359C16.1883 58.359 16.0481 58.3202 15.9126 58.2829C15.7267 58.2316 15.5164 58.1737 15.299 58.1737C15.2173 58.1737 15.1385 58.182 15.0645 58.1983C14.7777 58.2616 14.5559 58.4523 14.3602 58.6205C14.2277 58.7343 14.0776 58.8636 13.983 58.8767C13.9824 58.8767 13.9817 58.8767 13.9813 58.8767C13.8769 58.8767 13.717 58.8042 13.5759 58.7402C13.3521 58.6387 13.0982 58.5236 12.8173 58.5236C12.7941 58.5236 12.771 58.5243 12.7483 58.5259C12.4513 58.5461 12.201 58.7041 11.9798 58.8436C11.8329 58.9363 11.6659 59.0416 11.5715 59.0416Z" fill="white"/>
<path d="M11.5718 50.7401C11.6277 50.7708 11.7019 50.8177 11.7569 50.8523C12.0066 51.0101 12.3174 51.2066 12.7205 51.2341C12.7522 51.2362 12.784 51.2372 12.8157 51.2372C13.1873 51.2372 13.4979 51.0963 13.7476 50.983C13.8007 50.9588 13.8714 50.9267 13.927 50.9048C13.9777 50.9431 14.0425 50.9988 14.0907 51.0401C14.3124 51.2301 14.5886 51.4667 14.9763 51.5522C15.0805 51.5753 15.1903 51.587 15.3029 51.587C15.5763 51.587 15.8258 51.5182 16.0263 51.4632C16.0794 51.4486 16.1495 51.4292 16.2053 51.4163C16.2487 51.4638 16.3023 51.5301 16.3423 51.5797C16.5205 51.8002 16.7424 52.0745 17.0939 52.2295C17.3775 52.3546 17.6595 52.369 17.8471 52.369C17.9371 52.369 18.0288 52.365 18.1197 52.3606C18.1747 52.3579 18.2294 52.3552 18.2825 52.3546C18.3092 52.4123 18.3392 52.4867 18.3619 52.5432C18.4592 52.7852 18.5805 53.0864 18.8329 53.3265C19.0897 53.5703 19.3938 53.6927 19.6383 53.7909C19.6614 53.8 19.6877 53.8107 19.7146 53.8217C19.7035 53.8607 19.6917 53.9001 19.6814 53.9332C19.6195 54.1383 19.5424 54.3934 19.5424 54.6723C19.5424 54.9503 19.6191 55.2052 19.6806 55.4099C19.6908 55.4439 19.7029 55.4843 19.7144 55.5243C19.6873 55.5354 19.6608 55.546 19.6375 55.5554C19.3926 55.6535 19.0874 55.7759 18.8304 56.0204C18.578 56.2599 18.4565 56.5608 18.3588 56.8026C18.3359 56.8593 18.3058 56.9339 18.2787 56.9916C18.2258 56.991 18.1712 56.9881 18.1162 56.9854C18.0249 56.981 17.9328 56.9768 17.8423 56.9768C17.6549 56.9768 17.3731 56.9912 17.0901 57.1161C16.7385 57.2707 16.5167 57.5452 16.3385 57.7659C16.2989 57.8151 16.246 57.8808 16.2028 57.9279C16.1466 57.915 16.0765 57.8956 16.0234 57.881C15.8227 57.8255 15.5728 57.7568 15.2989 57.7568C15.1874 57.7568 15.0784 57.7682 14.974 57.7912C14.5853 57.877 14.3095 58.114 14.0882 58.3043C14.0406 58.3451 13.9767 58.4002 13.9266 58.4383C13.8712 58.4164 13.8007 58.3845 13.748 58.3606C13.4987 58.2476 13.1882 58.1069 12.8172 58.1069C12.7845 58.1069 12.7519 58.108 12.7205 58.1103C12.3182 58.1376 12.0075 58.3337 11.7576 58.4913C11.7025 58.5261 11.6277 58.5732 11.5718 58.6036C11.5158 58.5732 11.4416 58.5261 11.3866 58.4915C11.1369 58.3339 10.8263 58.1378 10.4249 58.1105C10.3926 58.1082 10.3599 58.1071 10.3271 58.1071C9.95572 58.1071 9.64537 58.248 9.39589 58.3612C9.34295 58.3852 9.2725 58.4173 9.21706 58.4391C9.16641 58.4008 9.10139 58.3451 9.05303 58.3037C8.83127 58.1136 8.5551 57.877 8.16743 57.7916C8.06322 57.7684 7.95338 57.7568 7.84083 57.7568C7.56738 57.7568 7.31789 57.8255 7.11739 57.8806C7.06424 57.8952 6.99421 57.9145 6.93835 57.9275C6.895 57.8799 6.84144 57.8137 6.80142 57.7643C6.62321 57.5438 6.40124 57.2693 6.04859 57.1138C5.76555 56.9895 5.48396 56.9752 5.2968 56.9752C5.20697 56.9752 5.11568 56.9791 5.02501 56.9835C4.96957 56.986 4.91476 56.9889 4.86098 56.9896C4.8341 56.9318 4.80408 56.857 4.78116 56.8003C4.68382 56.5587 4.56273 56.2582 4.31032 56.0177C4.05354 55.7736 3.74945 55.6513 3.50497 55.5531C3.48204 55.5439 3.45557 55.5333 3.4289 55.5222C3.43994 55.4833 3.45182 55.4441 3.46183 55.4109C3.52373 55.2061 3.60085 54.9509 3.60085 54.6723C3.60085 54.3938 3.52415 54.1389 3.46266 53.934C3.45245 53.9001 3.44036 53.8596 3.4289 53.8196C3.45599 53.8086 3.48267 53.7979 3.50601 53.7886C3.75091 53.6904 4.05605 53.568 4.31303 53.3236C4.56544 53.0841 4.68695 52.7831 4.7847 52.5413C4.80763 52.4847 4.83764 52.41 4.86473 52.3523C4.91767 52.3529 4.97228 52.3558 5.0271 52.3586C5.11839 52.3629 5.21051 52.3671 5.30097 52.3671C5.48813 52.3671 5.76992 52.3527 6.05338 52.2279C6.40499 52.0732 6.62676 51.7987 6.80496 51.578C6.84456 51.5288 6.8975 51.4632 6.94065 51.4161C6.99692 51.429 7.06695 51.4484 7.1201 51.463C7.32081 51.5184 7.57092 51.5872 7.84458 51.5872C7.95609 51.5872 8.0651 51.5757 8.16952 51.5526C8.55781 51.4667 8.83335 51.2299 9.0547 51.0396C9.10243 50.9986 9.16621 50.9438 9.21644 50.9054C9.27188 50.9275 9.34232 50.9594 9.39506 50.9834C9.64475 51.0968 9.95551 51.2377 10.3271 51.2377C10.3588 51.2377 10.3907 51.2366 10.4228 51.2345C10.8257 51.2072 11.1367 51.0107 11.3866 50.8527C11.4416 50.8175 11.5158 50.7706 11.5718 50.7401ZM11.5716 49.8848C11.1577 49.8848 10.7659 50.375 10.3665 50.4023C10.3534 50.4031 10.3405 50.4035 10.3273 50.4035C9.94842 50.4035 9.53866 50.049 9.17413 50.049C9.14995 50.049 9.12619 50.0505 9.10243 50.0538C8.69058 50.1119 8.37523 50.6526 7.98965 50.7381C7.94254 50.7485 7.89419 50.7529 7.84479 50.7529C7.52653 50.7529 7.16533 50.5676 6.86165 50.5676C6.80163 50.5676 6.74389 50.5749 6.68908 50.5922C6.28682 50.7193 6.07381 51.3075 5.71782 51.4642C5.5936 51.519 5.44978 51.5328 5.30118 51.5328C5.14777 51.5328 4.98895 51.518 4.84076 51.518C4.68069 51.518 4.53292 51.5353 4.41725 51.607C4.04958 51.8358 4.01457 52.4571 3.73924 52.7187C3.42264 53.0197 2.79633 53.0562 2.61937 53.3921C2.42283 53.7652 2.76756 54.2679 2.76756 54.6721C2.76756 55.0748 2.42241 55.5766 2.61791 55.9483C2.79445 56.2842 3.42056 56.3213 3.73632 56.6217C4.01123 56.8839 4.04583 57.5052 4.41308 57.7334C4.52959 57.8057 4.6784 57.823 4.83951 57.823C4.98708 57.823 5.14465 57.8087 5.29701 57.8087C5.44582 57.8087 5.58943 57.8224 5.71386 57.877C6.07068 58.0346 6.28452 58.6234 6.68741 58.7505C6.74222 58.7678 6.79996 58.7751 6.85978 58.7751C7.16283 58.7751 7.52361 58.5905 7.84125 58.5905C7.89106 58.5905 7.93983 58.595 7.98715 58.6055C8.37419 58.6907 8.69037 59.2316 9.10347 59.2897C9.12744 59.2931 9.15162 59.2947 9.17621 59.2947C9.54033 59.2947 9.94905 58.9408 10.3273 58.9408C10.3407 58.9408 10.3542 58.9412 10.3676 58.9423C10.7667 58.9694 11.1581 59.459 11.5721 59.459C11.9862 59.459 12.378 58.9694 12.7776 58.9423C12.7909 58.9414 12.8043 58.9408 12.8178 58.9408C13.1961 58.9408 13.6052 59.2945 13.97 59.2945C13.9942 59.2945 14.0181 59.2931 14.0419 59.2897C14.4539 59.2316 14.7687 58.6909 15.1547 58.6055C15.2018 58.595 15.2501 58.5907 15.2995 58.5907C15.6178 58.5907 15.9792 58.776 16.2827 58.776C16.3427 58.776 16.4004 58.7687 16.4552 58.7514C16.8575 58.6242 17.0705 58.0361 17.4265 57.8793C17.5507 57.8245 17.6943 57.8107 17.8429 57.8107C17.9963 57.8107 18.1552 57.8255 18.3036 57.8255C18.4636 57.8255 18.6114 57.8082 18.7271 57.7365C19.0947 57.5077 19.1297 56.8864 19.4051 56.6248C19.7217 56.3238 20.348 56.2874 20.5249 55.9514C20.7215 55.5783 20.3768 55.0756 20.3768 54.6721C20.3768 54.2686 20.7219 53.7675 20.5264 53.3951C20.3499 53.0591 19.7238 53.022 19.4078 52.7216C19.1329 52.4603 19.0987 51.8381 18.7312 51.6099C18.6151 51.5378 18.4667 51.5205 18.3061 51.5205C18.1583 51.5205 18.0003 51.5351 17.8475 51.5351C17.6987 51.5351 17.5549 51.5211 17.4307 51.4665C17.0738 51.3089 16.86 50.7201 16.4571 50.593C16.4023 50.5757 16.3446 50.5684 16.2847 50.5684C15.9817 50.5684 15.6209 50.7531 15.3033 50.7531C15.2535 50.7531 15.2047 50.7485 15.1574 50.7381C14.7703 50.6528 14.4542 50.1119 14.0411 50.0538C14.0173 50.0505 13.9933 50.049 13.9691 50.049C13.6042 50.049 13.1951 50.4035 12.8161 50.4035C12.803 50.4035 12.7901 50.4031 12.777 50.4023C12.3772 50.3752 11.9858 49.8848 11.5716 49.8848Z" fill="#312F2F"/>
<path d="M9.02409 55.2928L8.28668 55.4689C8.18538 55.3068 8.13974 55.14 8.13974 54.9679C8.13974 54.1804 9.19896 53.5087 10.6548 53.3038V52.8221H11.3922V53.2442H11.5671H11.7513V52.8221H12.4887V53.3038C13.9352 53.5087 15.0042 54.1804 15.0042 54.9679C15.0042 55.1448 14.9488 55.3153 14.8475 55.4783L14.1105 55.3022C14.1655 55.1951 14.193 55.0842 14.193 54.9679C14.193 54.403 13.4835 53.9205 12.4887 53.7305V54.6994H11.7513V53.6513L11.5671 53.6473L11.3922 53.6513V54.6994H10.6546V53.7305C9.65937 53.9205 8.94051 54.403 8.94051 54.9679C8.94072 55.0794 8.96865 55.1903 9.02409 55.2928Z" fill="#AEAEAE"/>
<path d="M65.1477 77.1412C65.0539 77.1412 64.8874 77.0359 64.7404 76.943C64.5195 76.8033 64.269 76.6449 63.9718 76.6249C63.9493 76.6232 63.9267 76.6226 63.9044 76.6226C63.6231 76.6226 63.3694 76.7377 63.1451 76.8392C63.0032 76.9036 62.8425 76.9763 62.7518 76.9763C62.6416 76.9621 62.4907 76.8329 62.3577 76.7189C62.1616 76.5507 61.9392 76.36 61.6524 76.297C61.5786 76.2806 61.4992 76.2722 61.4171 76.2722C61.1997 76.2722 60.9892 76.3304 60.8037 76.3815C60.6684 76.419 60.5284 76.4575 60.435 76.4575C60.4085 76.4575 60.3948 76.4542 60.3887 76.4525C60.2935 76.4221 60.1659 76.2647 60.0536 76.1257C59.8954 75.9302 59.7164 75.7089 59.4571 75.5949C59.2457 75.5019 59.0221 75.4911 58.8722 75.4911C58.7889 75.4911 58.7038 75.495 58.6196 75.4988C58.5498 75.5021 58.4808 75.5054 58.4139 75.5054C58.2632 75.5054 58.2186 75.485 58.2086 75.4788C58.1188 75.4227 58.04 75.2274 57.9704 75.055C57.8837 74.8402 57.7855 74.5965 57.5992 74.4191C57.4003 74.2297 57.1479 74.1282 56.9251 74.0383C56.8022 73.9889 56.5962 73.906 56.5627 73.8526C56.5479 73.8245 56.55 73.7709 56.5543 73.7309C56.5583 73.6976 56.5579 73.6642 56.5535 73.6313C56.5535 73.6313 56.5533 71.7903 56.5529 71.7828C56.552 71.7669 56.5514 71.7511 56.5525 71.7355C56.5531 71.7259 56.5535 71.7163 56.5535 71.7067V26.9237H73.7427V71.7036C73.7427 71.7138 73.7431 71.7242 73.744 71.7342C73.7452 71.7509 73.7448 71.7678 73.7435 71.7851C73.7429 71.7942 73.7427 71.8034 73.7427 71.8126V73.6246C73.7373 73.6598 73.7365 73.6957 73.7404 73.7318C73.7448 73.772 73.7471 73.8262 73.7317 73.8556C73.6983 73.9085 73.4922 73.991 73.3688 74.0406C73.146 74.1301 72.8932 74.2313 72.6935 74.4212C72.5068 74.5984 72.4086 74.8422 72.3217 75.0571C72.2521 75.2295 72.1733 75.4248 72.0828 75.4809C72.0724 75.4871 72.028 75.5077 71.8781 75.5077C71.8108 75.5077 71.7414 75.504 71.6712 75.5009C71.5866 75.4967 71.5009 75.4929 71.4169 75.4929C71.2679 75.4929 71.0455 75.5036 70.8348 75.5961C70.5755 75.7101 70.3967 75.9313 70.2391 76.1266C70.1272 76.2652 70.0002 76.4223 69.9052 76.4523C69.8992 76.4544 69.8848 76.4575 69.8581 76.4575C69.7647 76.4575 69.6245 76.419 69.489 76.3819C69.3035 76.3308 69.0934 76.2731 68.8764 76.2731C68.7941 76.2731 68.7147 76.2814 68.6399 76.2981C68.3541 76.3612 68.1323 76.5515 67.9368 76.7193C67.8043 76.8331 67.6542 76.9621 67.5596 76.9755C67.559 76.9755 67.5581 76.9755 67.5573 76.9755C67.4512 76.9755 67.2918 76.9029 67.1507 76.8392C66.9268 76.7379 66.6732 76.6228 66.3922 76.6228C66.3699 76.6228 66.3474 76.6234 66.3251 76.6251C66.0272 76.6453 65.7767 76.8035 65.5556 76.9432C65.4086 77.0359 65.2419 77.1412 65.1477 77.1412Z" fill="white"/>
<path d="M73.326 27.3405V71.7036C73.326 71.7217 73.3266 71.74 73.3279 71.7582C73.3266 71.7763 73.326 71.7944 73.326 71.8126V73.6081C73.2874 73.6244 73.2472 73.6404 73.2139 73.6538C72.9688 73.752 72.6638 73.8743 72.4071 74.1186C72.1546 74.3583 72.0329 74.6592 71.9352 74.9012C71.9122 74.9579 71.882 75.0327 71.8551 75.0907C71.8018 75.09 71.7468 75.0871 71.6913 75.0844C71.6 75.08 71.5077 75.0759 71.4172 75.0759C71.2307 75.0759 70.95 75.0902 70.6665 75.2147C70.3149 75.3693 70.0931 75.6438 69.9149 75.8645C69.8753 75.9137 69.8222 75.9794 69.7792 76.0265C69.723 76.0136 69.6531 75.9944 69.6 75.9798C69.3995 75.9246 69.1498 75.856 68.8763 75.856C68.7638 75.856 68.6539 75.8677 68.5504 75.8908C68.1621 75.9767 67.8865 76.2132 67.6654 76.4033C67.6177 76.4444 67.5535 76.4994 67.5032 76.5378C67.4476 76.5157 67.3767 76.4836 67.3234 76.4594C67.0741 76.3464 66.7635 76.2057 66.3927 76.2057C66.3609 76.2057 66.329 76.2068 66.2971 76.2091C65.8944 76.2364 65.5834 76.4329 65.3335 76.5907C65.2785 76.6255 65.2041 76.6724 65.1482 76.703C65.0924 76.6724 65.0182 76.6255 64.9636 76.5909C64.7139 76.4329 64.4031 76.2364 63.9996 76.2091C63.9679 76.207 63.9362 76.2059 63.9044 76.2059C63.5332 76.2059 63.2226 76.3466 62.9731 76.4598C62.9198 76.484 62.8487 76.5163 62.793 76.5382C62.7424 76.4998 62.6774 76.4442 62.6292 76.4027C62.4075 76.2126 62.1313 75.9758 61.7436 75.8904C61.6394 75.8673 61.5298 75.8556 61.4174 75.8556C61.1436 75.8556 60.8937 75.9246 60.693 75.98C60.64 75.9946 60.5704 76.0138 60.5147 76.0267C60.4714 75.9792 60.418 75.9131 60.378 75.8637C60.1994 75.6428 59.977 75.3679 59.626 75.2138C59.3424 75.0888 59.0604 75.0742 58.8728 75.0742C58.7827 75.0742 58.691 75.0782 58.6002 75.0825C58.5451 75.0852 58.4905 75.088 58.4374 75.0886C58.4105 75.0306 58.3803 74.956 58.3576 74.8993C58.26 74.6576 58.1387 74.3566 57.8876 74.1179C57.6306 73.8728 57.3258 73.7503 57.0812 73.6517C57.0482 73.6386 57.0086 73.6225 56.9707 73.6065V71.8057C56.9707 71.7905 56.9701 71.7715 56.9692 71.7559C56.9701 71.7396 56.9707 71.7234 56.9707 71.7069V27.3405H73.326ZM74.1597 26.5068H56.137V71.7069C56.1347 71.7392 56.1351 71.7721 56.137 71.8055V73.6848H56.1405C56.1262 73.813 56.1357 73.9358 56.1941 74.0469C56.3706 74.3829 56.9967 74.42 57.3123 74.7209C57.5872 74.9823 57.6218 75.6038 57.9893 75.8327C58.1054 75.9048 58.254 75.9221 58.4144 75.9221C58.562 75.9221 58.7202 75.9075 58.873 75.9075C59.0218 75.9075 59.1656 75.9214 59.2898 75.9763C59.6467 76.133 59.8603 76.7218 60.2634 76.8498C60.318 76.8671 60.3757 76.8744 60.4355 76.8744C60.7388 76.8744 61.0998 76.6889 61.4176 76.6889C61.4672 76.6889 61.516 76.6935 61.5631 76.7039C61.9502 76.7891 62.2664 77.3306 62.6794 77.3881C62.7034 77.3915 62.7278 77.3931 62.7522 77.3931C63.1167 77.3931 63.5257 77.0392 63.9044 77.0392C63.9175 77.0392 63.9304 77.0396 63.9435 77.0405C64.3427 77.0676 64.7339 77.558 65.1478 77.558C65.5622 77.558 65.9538 77.0678 66.3534 77.0405C66.3665 77.0396 66.3794 77.0392 66.3925 77.0392C66.7708 77.0392 67.18 77.3931 67.5447 77.3931C67.5691 77.3931 67.5933 77.3915 67.6174 77.3881C68.0295 77.3308 68.3444 76.79 68.7302 76.7047C68.7775 76.6943 68.8263 76.6897 68.8763 76.6897C69.1942 76.6897 69.555 76.8744 69.8582 76.8744C69.9183 76.8744 69.976 76.8671 70.0308 76.8498C70.4331 76.7226 70.6461 76.1345 71.0021 75.9777C71.1259 75.9233 71.2688 75.9096 71.417 75.9096C71.5706 75.9096 71.7295 75.9244 71.8779 75.9244C72.0383 75.9244 72.1865 75.9071 72.3026 75.835C72.6705 75.6069 72.7053 74.9848 72.9806 74.7232C73.2972 74.4222 73.9236 74.3858 74.1005 74.0498C74.1595 73.9379 74.1693 73.8139 74.1547 73.6848H74.1595V71.8126C74.162 71.7757 74.1622 71.7392 74.1595 71.7036V26.5068H74.1597Z" fill="#312F2F"/>
<path d="M65.1482 31.9513C65.054 31.9513 64.8875 31.846 64.7403 31.7533C64.5194 31.6138 64.2691 31.4558 63.9719 31.4356C63.9496 31.4342 63.9264 31.4333 63.9035 31.4333C63.6221 31.4333 63.3687 31.5484 63.1446 31.6501C63.0029 31.7145 62.8424 31.7872 62.7522 31.7872C62.6423 31.7729 62.4912 31.6436 62.358 31.5296C62.1619 31.3616 61.9395 31.1711 61.6527 31.108C61.5787 31.0915 61.4993 31.0832 61.417 31.0832C61.1998 31.0832 60.9895 31.1411 60.8042 31.192C60.6689 31.2293 60.5291 31.2676 60.4355 31.2676C60.409 31.2676 60.3951 31.2645 60.389 31.2626C60.2932 31.2322 60.1658 31.0748 60.0535 30.9356C59.8955 30.7403 59.7167 30.5192 59.458 30.4052C59.2458 30.312 59.0226 30.3012 58.873 30.3012C58.7896 30.3012 58.7048 30.3051 58.6208 30.3091C58.5511 30.3124 58.4819 30.3158 58.4153 30.3158C58.2639 30.3158 58.2193 30.2951 58.2091 30.2889C58.1187 30.2328 58.0401 30.0375 57.9707 29.8654C57.8842 29.6505 57.786 29.407 57.5999 29.2294C57.4004 29.0398 57.1482 28.9385 56.9258 28.8491C56.8025 28.7995 56.5963 28.7165 56.5626 28.6632C56.5225 28.5867 56.5901 28.363 56.6395 28.1994C56.6989 28.0022 56.7606 27.7984 56.7606 27.5814C56.7606 27.3645 56.6993 27.1604 56.6401 26.9632C56.588 26.7898 56.523 26.5741 56.5644 26.4955C56.5978 26.4428 56.8039 26.3601 56.9273 26.3107C57.1501 26.2213 57.4031 26.1197 57.6026 25.9299C57.7893 25.7527 57.8875 25.5091 57.9744 25.2942C58.044 25.1218 58.123 24.9265 58.2135 24.87C58.2227 24.8642 58.2671 24.844 58.4167 24.844C58.4836 24.844 58.553 24.8475 58.623 24.8509C58.7079 24.855 58.7933 24.8588 58.8773 24.8588C59.027 24.8588 59.2504 24.8482 59.462 24.7548C59.7208 24.6408 59.8994 24.4198 60.0568 24.2248C60.1689 24.0859 60.2959 23.9288 60.3909 23.8988C60.3972 23.8969 60.4115 23.8936 60.438 23.8936C60.5316 23.8936 60.6719 23.9323 60.8073 23.9696C60.9933 24.0209 61.2036 24.0789 61.4209 24.0789C61.5024 24.0789 61.5812 24.0705 61.6552 24.0543C61.942 23.9909 62.1636 23.8004 62.3593 23.6322C62.492 23.5182 62.6421 23.389 62.7369 23.3758C62.7376 23.3758 62.7382 23.3758 62.7386 23.3758C62.8428 23.3758 63.0027 23.4484 63.1438 23.5124C63.3678 23.6141 63.6221 23.7295 63.9037 23.7295C63.9262 23.7295 63.9487 23.7289 63.971 23.7272C64.2687 23.707 64.5192 23.5486 64.7401 23.409C64.8875 23.3164 65.0542 23.2112 65.1482 23.2112C65.2424 23.2112 65.4092 23.3164 65.5561 23.4094C65.777 23.549 66.0273 23.7074 66.3248 23.7277C66.3473 23.7291 66.37 23.73 66.3923 23.73C66.6737 23.73 66.9275 23.6147 67.1518 23.513C67.2937 23.4486 67.4546 23.3754 67.5453 23.3754C67.6545 23.3896 67.8054 23.5188 67.9386 23.633C68.1347 23.801 68.3571 23.9915 68.6439 24.0547C68.7179 24.0711 68.7973 24.0795 68.8796 24.0795C69.0968 24.0795 69.3071 24.0215 69.4924 23.9705C69.6277 23.9332 69.7675 23.8948 69.8611 23.8948C69.8876 23.8948 69.9015 23.8979 69.9076 23.8998C70.0035 23.9302 70.1308 24.0878 70.2432 24.2268C70.4011 24.4221 70.5798 24.6433 70.8386 24.7575C71.0506 24.8509 71.274 24.8617 71.4239 24.8617C71.5072 24.8617 71.5925 24.8577 71.6767 24.8538C71.7465 24.8504 71.8157 24.8471 71.8824 24.8471C72.0331 24.8471 72.0775 24.8675 72.0875 24.8736C72.1778 24.9296 72.2563 25.1249 72.3255 25.2971C72.4122 25.5122 72.5104 25.756 72.6969 25.9334C72.8962 26.1227 73.1482 26.224 73.3706 26.3134C73.494 26.363 73.7003 26.4459 73.7338 26.4993C73.7741 26.5762 73.7065 26.7998 73.6574 26.9632C73.5977 27.1604 73.5361 27.3645 73.5361 27.5819C73.5361 27.7986 73.5973 28.0025 73.6565 28.1994C73.7086 28.3728 73.7737 28.5883 73.7322 28.6667C73.6988 28.7196 73.4927 28.8024 73.3693 28.8518C73.1463 28.9412 72.8935 29.0427 72.694 29.2326C72.5073 29.4095 72.4091 29.6534 72.3222 29.8683C72.2526 30.0406 72.1736 30.2359 72.0831 30.2922C72.0737 30.298 72.0293 30.3183 71.8795 30.3183C71.8126 30.3183 71.7432 30.3147 71.6732 30.3114C71.5885 30.3072 71.5031 30.3035 71.4191 30.3035C71.2694 30.3035 71.046 30.3143 70.8345 30.4075C70.5758 30.5213 70.3972 30.7424 70.2396 30.9375C70.1275 31.0763 70.0005 31.2335 69.9055 31.2633C69.8993 31.2653 69.8851 31.2685 69.8586 31.2685C69.765 31.2685 69.6248 31.2299 69.4893 31.1926C69.3034 31.1413 69.0931 31.0834 68.8757 31.0834C68.794 31.0834 68.7152 31.0917 68.6412 31.108C68.3542 31.1713 68.1324 31.3621 67.9365 31.5303C67.8042 31.6441 67.6541 31.7733 67.5593 31.7864C67.5588 31.7864 67.5582 31.7864 67.5576 31.7864C67.4536 31.7864 67.2935 31.7139 67.1524 31.6499C66.9286 31.5484 66.6749 31.4333 66.394 31.4333C66.3708 31.4333 66.3477 31.434 66.3248 31.4356C66.028 31.4558 65.7774 31.6138 65.5563 31.7533C65.4094 31.846 65.2426 31.9513 65.1482 31.9513Z" fill="white"/>
<path d="M65.1481 23.6496C65.204 23.6802 65.2784 23.7271 65.3332 23.7619C65.5829 23.9197 65.8937 24.1163 66.2968 24.1438C66.3285 24.1459 66.3603 24.1469 66.392 24.1469C66.7636 24.1469 67.0742 24.006 67.3239 23.8926C67.377 23.8684 67.4477 23.8363 67.5033 23.8145C67.554 23.8528 67.6188 23.9085 67.667 23.9497C67.8887 24.1398 68.1649 24.3764 68.5526 24.4618C68.6568 24.485 68.7666 24.4966 68.8792 24.4966C69.1526 24.4966 69.4021 24.4279 69.6026 24.3728C69.6558 24.3582 69.7258 24.3389 69.7816 24.3259C69.825 24.3735 69.8786 24.4397 69.9186 24.4891C70.0968 24.7096 70.3187 24.9841 70.6702 25.1392C70.9538 25.2643 71.2358 25.2786 71.4232 25.2786C71.5134 25.2786 71.6049 25.2747 71.6958 25.2703C71.7508 25.2676 71.8054 25.2649 71.8586 25.2643C71.8855 25.322 71.9153 25.3964 71.938 25.4529C72.0353 25.6949 72.1566 25.996 72.4093 26.2362C72.666 26.48 72.9701 26.6021 73.2144 26.7003C73.2375 26.7095 73.2638 26.7201 73.2907 26.7312C73.2796 26.7701 73.2678 26.8095 73.2575 26.8427C73.1956 27.0478 73.1185 27.3029 73.1185 27.5817C73.1185 27.8598 73.1952 28.1147 73.2567 28.3194C73.2669 28.3533 73.279 28.3938 73.2905 28.4338C73.2634 28.4448 73.2367 28.4555 73.2136 28.4648C72.9685 28.563 72.6635 28.6854 72.4065 28.9298C72.1541 29.1693 72.0326 29.4703 71.9349 29.7121C71.912 29.7687 71.8819 29.8434 71.8548 29.9013C71.8017 29.9007 71.7471 29.8978 71.6923 29.8951C71.601 29.8907 71.5089 29.8865 71.4184 29.8865C71.231 29.8865 70.9492 29.9009 70.6662 30.0257C70.3146 30.1804 70.0928 30.4549 69.9146 30.6756C69.875 30.7246 69.8219 30.7902 69.7789 30.8375C69.7224 30.8246 69.6526 30.8052 69.5995 30.7907C69.3988 30.7354 69.1487 30.6664 68.875 30.6664C68.7635 30.6664 68.6545 30.6779 68.5501 30.7008C68.1613 30.7867 67.8858 31.0237 67.6645 31.214C67.6169 31.2548 67.553 31.3098 67.5029 31.3482C67.4475 31.3263 67.377 31.2944 67.3243 31.2704C67.075 31.1575 66.7645 31.0168 66.3935 31.0168C66.3608 31.0168 66.3282 31.0178 66.2968 31.0201C65.8943 31.0474 65.5836 31.2436 65.3336 31.4011C65.2784 31.4359 65.2038 31.483 65.1477 31.5135C65.0919 31.483 65.0175 31.4359 64.9624 31.4013C64.7127 31.2438 64.4022 31.0474 64.0008 31.0201C63.9683 31.0178 63.9357 31.0168 63.903 31.0168C63.5316 31.0168 63.2213 31.1577 62.9718 31.2709C62.9188 31.2948 62.8482 31.3269 62.7927 31.3488C62.7421 31.3105 62.6773 31.2548 62.6289 31.2133C62.4072 31.0233 62.131 30.7867 61.7433 30.7012C61.6391 30.6781 61.5293 30.6664 61.4167 30.6664C61.1433 30.6664 60.8938 30.7352 60.6933 30.7902C60.6401 30.8048 60.5701 30.8242 60.5142 30.8371C60.4709 30.7896 60.4173 30.7233 60.3773 30.6737C60.1991 30.4532 59.9771 30.1789 59.6245 30.0232C59.3414 29.899 59.0598 29.8846 58.8727 29.8846C58.7829 29.8846 58.6916 29.8886 58.6009 29.893C58.5455 29.8957 58.4904 29.8984 58.4369 29.899C58.41 29.8411 58.3798 29.7665 58.357 29.7098C58.2597 29.4684 58.1386 29.1679 57.8864 28.9273C57.6296 28.6831 57.3255 28.5609 57.0811 28.4628C57.0581 28.4536 57.0319 28.443 57.0052 28.4319C57.0162 28.3929 57.0281 28.3537 57.0381 28.3206C57.1 28.1157 57.1771 27.8606 57.1771 27.582C57.1771 27.3035 57.1004 27.0486 57.039 26.8437C57.0287 26.8097 57.0167 26.7693 57.0052 26.7293C57.0323 26.7182 57.059 26.7074 57.0823 26.6982C57.3272 26.6001 57.6321 26.4777 57.8893 26.2332C58.1417 25.9938 58.2633 25.6928 58.361 25.451C58.3839 25.3943 58.4139 25.3197 58.441 25.262C58.494 25.2626 58.5486 25.2655 58.6034 25.2682C58.6947 25.2726 58.7868 25.2768 58.8773 25.2768C59.0644 25.2768 59.3462 25.2624 59.6297 25.1375C59.9813 24.9829 60.2028 24.7084 60.3811 24.4879C60.4207 24.4387 60.4738 24.373 60.5167 24.3259C60.5732 24.3389 60.643 24.3582 60.6962 24.3728C60.8969 24.4283 61.147 24.4971 61.4207 24.4971C61.5322 24.4971 61.6412 24.4856 61.7458 24.4625C62.1339 24.3766 62.4094 24.1398 62.6308 23.9497C62.6785 23.9087 62.7425 23.8539 62.7927 23.8153C62.8482 23.8374 62.9186 23.8693 62.9714 23.8932C63.2211 24.0066 63.5318 24.1475 63.9034 24.1475C63.9353 24.1475 63.967 24.1465 63.9991 24.1444C64.402 24.1171 64.713 23.9206 64.9629 23.7626C65.0181 23.7271 65.0923 23.6802 65.1481 23.6496ZM65.1481 22.7944C64.7342 22.7944 64.3426 23.2846 63.943 23.312C63.9299 23.3128 63.917 23.3132 63.9039 23.3132C63.5249 23.3132 63.1154 22.9587 62.7506 22.9587C62.7265 22.9587 62.7027 22.9601 62.6789 22.9635C62.2669 23.0216 61.9515 23.5623 61.5662 23.6477C61.5191 23.6581 61.4707 23.6625 61.4213 23.6625C61.103 23.6625 60.7418 23.4772 60.4382 23.4772C60.3781 23.4772 60.3204 23.4845 60.2656 23.5018C59.8633 23.629 59.6503 24.2171 59.2943 24.3739C59.1701 24.4287 59.0263 24.4424 58.8777 24.4424C58.7243 24.4424 58.5655 24.4277 58.4173 24.4277C58.2572 24.4277 58.1094 24.4449 57.9938 24.5166C57.6261 24.7455 57.5911 25.3668 57.3157 25.6284C56.9992 25.9294 56.3728 25.9658 56.1959 26.3018C55.9993 26.6749 56.3441 27.1776 56.3441 27.5817C56.3441 27.9844 55.9989 28.4863 56.1944 28.8579C56.371 29.1939 56.9971 29.231 57.3126 29.5313C57.5875 29.7935 57.6221 30.4149 57.9896 30.6431C58.1061 30.7154 58.2549 30.7327 58.416 30.7327C58.5636 30.7327 58.7212 30.7183 58.8735 30.7183C59.0223 30.7183 59.1659 30.7321 59.2904 30.7867C59.6472 30.9443 59.8608 31.5331 60.2639 31.6602C60.3187 31.6775 60.3765 31.6848 60.4363 31.6848C60.7393 31.6848 61.1001 31.5001 61.4178 31.5001C61.4676 31.5001 61.5163 31.5047 61.5637 31.5151C61.9507 31.6004 62.2669 32.1412 62.68 32.1994C62.7039 32.2027 62.7281 32.2044 62.7527 32.2044C63.1168 32.2044 63.5256 31.8505 63.9041 31.8505C63.9174 31.8505 63.9309 31.8509 63.9443 31.852C64.3434 31.879 64.7346 32.3686 65.1486 32.3686C65.5629 32.3686 65.9545 31.879 66.3541 31.852C66.3674 31.8511 66.3808 31.8505 66.3943 31.8505C66.7726 31.8505 67.1818 32.2042 67.5463 32.2042C67.5705 32.2042 67.5944 32.2027 67.6182 32.1994C68.0302 32.1412 68.3452 31.6006 68.731 31.5151C68.7781 31.5047 68.8264 31.5003 68.8758 31.5003C69.1941 31.5003 69.5555 31.6856 69.859 31.6856C69.919 31.6856 69.9767 31.6783 70.0315 31.661C70.4338 31.5339 70.6468 30.9457 71.0028 30.789C71.127 30.7342 71.2706 30.7204 71.4192 30.7204C71.5726 30.7204 71.7315 30.7352 71.8796 30.7352C72.0397 30.7352 72.1875 30.7179 72.3032 30.6462C72.671 30.4174 72.7058 29.796 72.9812 29.5345C73.2978 29.2335 73.9241 29.197 74.101 28.8611C74.2978 28.488 73.9528 27.9853 73.9528 27.5817C73.9528 27.1784 74.298 26.6772 74.1025 26.3047C73.926 25.9687 73.3001 25.9316 72.9839 25.6313C72.709 25.3699 72.6748 24.7478 72.3073 24.5196C72.1912 24.4475 72.0428 24.4302 71.8821 24.4302C71.7346 24.4302 71.5764 24.4447 71.4236 24.4447C71.275 24.4447 71.1312 24.4308 71.0068 24.3762C70.6499 24.2186 70.4361 23.6298 70.0332 23.5027C69.9784 23.4854 69.9207 23.4781 69.8608 23.4781C69.5578 23.4781 69.197 23.6627 68.8794 23.6627C68.8296 23.6627 68.7808 23.6581 68.7335 23.6477C68.3464 23.5625 68.0302 23.0216 67.6172 22.9635C67.5934 22.9601 67.5694 22.9587 67.5452 22.9587C67.1803 22.9587 66.7711 23.3132 66.392 23.3132C66.3789 23.3132 66.366 23.3128 66.3528 23.312C65.9537 23.2846 65.5625 22.7944 65.1481 22.7944Z" fill="#312F2F"/>
<path d="M62.6006 28.2025L61.8632 28.3786C61.7619 28.2164 61.7162 28.0497 61.7162 27.8775C61.7162 27.0901 62.7754 26.4184 64.2313 26.2135V25.7318H64.9687V26.1539H65.1436H65.3278V25.7318H66.0652V26.2135C67.5117 26.4184 68.5807 27.0901 68.5807 27.8775C68.5807 28.0545 68.5252 28.225 68.424 28.388L67.687 28.2119C67.742 28.1047 67.7695 27.9938 67.7695 27.8775C67.7695 27.3127 67.06 26.8302 66.0652 26.6401V27.6091H65.3278V26.5609L65.1436 26.557L64.9687 26.5609V27.6091H64.2313V26.6399C63.2361 26.83 62.5172 27.3125 62.5172 27.8773C62.517 27.9891 62.5449 28.0999 62.6006 28.2025Z" fill="#AEAEAE"/>
<path d="M50.721 77.1412C50.6272 77.1412 50.4607 77.036 50.3137 76.9432C50.0928 76.8034 49.8423 76.645 49.5451 76.625C49.5226 76.6233 49.5 76.6227 49.4777 76.6227C49.1966 76.6227 48.9427 76.7377 48.7187 76.8392C48.5767 76.9036 48.416 76.9764 48.3256 76.9764C48.2149 76.9622 48.064 76.8328 47.9308 76.7188C47.7349 76.5506 47.5125 76.3601 47.2259 76.2971C47.1521 76.2807 47.0727 76.2723 46.9904 76.2723C46.7732 76.2723 46.5627 76.3305 46.377 76.3815C46.242 76.4191 46.1019 76.4576 46.0085 76.4576C45.982 76.4576 45.9683 76.4543 45.9622 76.4526C45.8668 76.4222 45.7392 76.2646 45.6267 76.1256C45.4687 75.9301 45.2897 75.7089 45.0306 75.5949C44.8192 75.502 44.5956 75.4911 44.4457 75.4911C44.3622 75.4911 44.2771 75.4951 44.1929 75.4989C44.1231 75.5022 44.0541 75.5055 43.9874 75.5055C43.8367 75.5055 43.7921 75.4851 43.7823 75.4788C43.6923 75.4228 43.6135 75.2277 43.5441 75.0555C43.4574 74.8404 43.359 74.5964 43.1723 74.419C42.9739 74.2298 42.7212 74.128 42.4984 74.0384C42.3755 73.989 42.1693 73.9059 42.1358 73.8527C42.1212 73.8246 42.1233 73.7716 42.1279 73.7322C42.1318 73.6985 42.1314 73.6649 42.127 73.6318V71.806C42.127 71.7976 42.1268 71.7891 42.1262 71.7808C42.1254 71.7664 42.1247 71.7522 42.1258 71.7385C42.1266 71.728 42.127 71.7174 42.127 71.7072V45.6543H59.316V71.7039C59.316 71.7149 59.3164 71.7259 59.3175 71.737C59.3187 71.7526 59.3181 71.7687 59.3169 71.7849C59.3162 71.7941 59.316 71.8033 59.316 71.8124V73.6264C59.3108 73.661 59.31 73.6962 59.3139 73.7316C59.3183 73.7721 59.3204 73.8265 59.305 73.8561C59.2718 73.9086 59.0657 73.9911 58.9423 74.0407C58.7195 74.1301 58.4665 74.2314 58.267 74.4213C58.0803 74.5985 57.9821 74.8423 57.8952 75.0574C57.8256 75.2296 57.7466 75.4251 57.6563 75.4809C57.6459 75.4874 57.6015 75.5078 57.4517 75.5078C57.3846 75.5078 57.3149 75.5041 57.2449 75.5009C57.1601 75.4968 57.0744 75.4928 56.9902 75.4928C56.8414 75.4928 56.619 75.5037 56.4081 75.5962C56.1488 75.7102 55.97 75.9313 55.8124 76.1266C55.7005 76.2652 55.5735 76.4224 55.4785 76.4524C55.4725 76.4545 55.4583 76.4576 55.4316 76.4576C55.338 76.4576 55.198 76.4191 55.0625 76.382C54.877 76.3309 54.6669 76.2732 54.4497 76.2732C54.3674 76.2732 54.288 76.2815 54.2134 76.2982C53.9274 76.3613 53.7054 76.5516 53.5099 76.7196C53.3776 76.8334 53.2275 76.9622 53.1331 76.9755C53.1325 76.9755 53.1316 76.9755 53.1308 76.9755C53.0247 76.9755 52.8653 76.903 52.7242 76.8392C52.5003 76.7379 52.2467 76.6229 51.9655 76.6229C51.9432 76.6229 51.9207 76.6235 51.8986 76.6252C51.6008 76.6454 51.3502 76.8034 51.1293 76.9432C50.9822 77.0358 50.8152 77.1412 50.721 77.1412Z" fill="white"/>
<path d="M58.8989 46.0711V71.7036C58.8989 71.7243 58.8991 71.7368 58.9008 71.7572C58.8996 71.7755 58.8989 71.7941 58.8989 71.8124V73.608C58.8604 73.6243 58.8201 73.6403 58.7868 73.6537C58.5419 73.7518 58.2368 73.8742 57.9798 74.1187C57.7274 74.3583 57.6059 74.6593 57.5081 74.9011C57.4852 74.9578 57.455 75.0326 57.4279 75.0905C57.3745 75.0899 57.3195 75.087 57.2643 75.0843C57.173 75.0799 57.0806 75.0757 56.9902 75.0757C56.8034 75.0757 56.5227 75.0901 56.2392 75.2145C55.8876 75.3692 55.6658 75.6437 55.4876 75.8644C55.448 75.9136 55.3949 75.9793 55.352 76.0264C55.2957 76.0134 55.2259 75.9943 55.1729 75.9797C54.9724 75.9244 54.7227 75.8559 54.4493 75.8559C54.3367 75.8559 54.2269 75.8675 54.1233 75.8905C53.7348 75.9763 53.4593 76.2129 53.2379 76.403C53.1902 76.444 53.126 76.4991 53.0758 76.5374C53.0201 76.5153 52.9492 76.4832 52.8959 76.4591C52.6466 76.3461 52.3361 76.2054 51.9653 76.2054C51.9334 76.2054 51.9015 76.2064 51.8696 76.2085C51.4669 76.2358 51.1562 76.4324 50.9063 76.5902C50.8512 76.625 50.7768 76.6719 50.7208 76.7025C50.6649 76.6719 50.5909 76.625 50.5361 76.5904C50.2864 76.4324 49.9756 76.2358 49.5721 76.2085C49.5404 76.2064 49.5088 76.2054 49.4769 76.2054C49.1057 76.2054 48.7951 76.3461 48.5456 76.4593C48.4923 76.4834 48.4214 76.5155 48.3658 76.5376C48.3151 76.4993 48.2501 76.4434 48.2017 76.4022C47.98 76.2121 47.704 75.9755 47.3161 75.8898C47.2119 75.8667 47.1023 75.855 46.99 75.855C46.7161 75.855 46.4662 75.924 46.2655 75.9795C46.2127 75.9941 46.1429 76.0132 46.0873 76.0262C46.0439 75.9786 45.9906 75.9126 45.9505 75.8632C45.7719 75.6422 45.5495 75.3675 45.1985 75.2133C44.9149 75.0882 44.6329 75.0737 44.4453 75.0737C44.3553 75.0737 44.2635 75.0776 44.1727 75.082C44.1177 75.0847 44.063 75.0874 44.0099 75.088C43.983 75.0301 43.9528 74.9555 43.9301 74.899C43.8325 74.6572 43.7112 74.3563 43.4601 74.1174C43.2031 73.8723 42.8984 73.7497 42.6537 73.6512C42.6207 73.638 42.5811 73.622 42.5432 73.6061V71.8053C42.5432 71.7895 42.5428 71.7718 42.5418 71.7557C42.5426 71.7393 42.5432 71.7228 42.5432 71.7066V46.0711H58.8989ZM59.7326 45.2374H41.7099V71.7068C41.7076 71.7393 41.7078 71.7722 41.7099 71.8058V73.6851H41.7135C41.6991 73.8133 41.7087 73.9359 41.767 74.047C41.9436 74.3829 42.5697 74.42 42.8852 74.721C43.1604 74.9824 43.1947 75.6039 43.5622 75.8327C43.6783 75.9049 43.8269 75.9222 43.9874 75.9222C44.135 75.9222 44.2931 75.9076 44.4459 75.9076C44.5947 75.9076 44.7385 75.9215 44.8628 75.9763C45.2196 76.1331 45.4332 76.7219 45.8363 76.8498C45.8909 76.8671 45.9487 76.8744 46.0085 76.8744C46.3117 76.8744 46.6727 76.6889 46.9906 76.6889C47.0404 76.6889 47.089 76.6935 47.1363 76.704C47.5233 76.7892 47.8395 77.3307 48.2526 77.3882C48.2766 77.3915 48.3009 77.3932 48.3253 77.3932C48.6897 77.3932 49.0988 77.0393 49.4775 77.0393C49.4906 77.0393 49.5036 77.0397 49.5167 77.0406C49.9158 77.0677 50.3072 77.5581 50.721 77.5581C51.1353 77.5581 51.5272 77.0679 51.9265 77.0406C51.9396 77.0397 51.9525 77.0393 51.9657 77.0393C52.344 77.0393 52.7531 77.3932 53.1179 77.3932C53.1424 77.3932 53.1666 77.3915 53.1908 77.3882C53.6026 77.3309 53.9176 76.79 54.3036 76.7048C54.3509 76.6944 54.3997 76.6898 54.4497 76.6898C54.7675 76.6898 55.1283 76.8744 55.4316 76.8744C55.4916 76.8744 55.5493 76.8671 55.6042 76.8498C56.0064 76.7227 56.2194 76.1345 56.5754 75.9778C56.6992 75.9234 56.8422 75.9096 56.9904 75.9096C57.1438 75.9096 57.3028 75.9244 57.4512 75.9244C57.6117 75.9244 57.7599 75.9071 57.876 75.835C58.2436 75.607 58.2787 74.9849 58.554 74.7233C58.8706 74.4223 59.4969 74.3859 59.6739 74.0499C59.7328 73.9379 59.7426 73.8141 59.728 73.6851H59.7328V71.8124C59.7353 71.7755 59.7355 71.7393 59.7328 71.7036V45.2374H59.7326Z" fill="#312F2F"/>
<path d="M50.721 50.6815C50.627 50.6815 50.4605 50.5764 50.3136 50.4835C50.0924 50.3441 49.8421 50.1859 49.5449 50.1656C49.5226 50.1642 49.4995 50.1633 49.4765 50.1633C49.1954 50.1633 48.9417 50.2784 48.7174 50.3801C48.5757 50.4445 48.4152 50.5173 48.325 50.5173C48.2153 50.5029 48.0644 50.3737 47.9313 50.2596C47.7351 50.0914 47.5125 49.9009 47.2257 49.8378C47.1518 49.8213 47.0723 49.813 46.99 49.813C46.7728 49.813 46.5625 49.8709 46.3772 49.9218C46.242 49.9591 46.1021 49.9974 46.0085 49.9974C45.9821 49.9974 45.9681 49.9943 45.9621 49.9924C45.8662 49.962 45.7388 49.8046 45.6265 49.6656C45.4685 49.4703 45.2897 49.249 45.0306 49.135C44.8186 49.042 44.5954 49.0312 44.4458 49.0312C44.3626 49.0312 44.2776 49.0351 44.1936 49.0391C44.124 49.0424 44.055 49.0458 43.9883 49.0458C43.837 49.0458 43.7924 49.0251 43.7821 49.0189C43.6917 48.9628 43.6129 48.7675 43.5435 48.5954C43.457 48.3805 43.3588 48.137 43.1727 47.9597C42.9735 47.77 42.7213 47.6687 42.4989 47.5793C42.3755 47.5299 42.1694 47.4469 42.1356 47.3936C42.0956 47.3171 42.1631 47.0935 42.2125 46.9298C42.2719 46.7327 42.3336 46.5288 42.3336 46.3119C42.3336 46.0949 42.2723 45.8908 42.2129 45.6937C42.1608 45.5203 42.0958 45.3045 42.1373 45.2262C42.1708 45.1732 42.3769 45.0905 42.5003 45.0411C42.7231 44.9517 42.976 44.8502 43.1754 44.6605C43.362 44.4836 43.4603 44.2397 43.5473 44.0248C43.6171 43.8525 43.6959 43.6572 43.7865 43.6007C43.7957 43.5948 43.8401 43.5746 43.9897 43.5746C44.0566 43.5746 44.126 43.5782 44.1961 43.5815C44.2807 43.5857 44.3662 43.5894 44.4504 43.5894C44.5998 43.5894 44.8232 43.5788 45.0348 43.4854C45.2936 43.3714 45.4725 43.1503 45.63 42.9552C45.742 42.8166 45.8689 42.6594 45.9639 42.6294C45.97 42.6275 45.9844 42.6242 46.0108 42.6242C46.1044 42.6242 46.2447 42.663 46.3804 42.7003C46.5661 42.7516 46.7766 42.8095 46.994 42.8095C47.0755 42.8095 47.1543 42.8012 47.2282 42.7849C47.5148 42.7215 47.7364 42.531 47.9321 42.3631C48.0649 42.249 48.2151 42.1198 48.31 42.1065C48.3106 42.1065 48.3112 42.1065 48.3116 42.1065C48.4158 42.1065 48.5757 42.179 48.7168 42.243C48.9409 42.3447 49.1952 42.4602 49.4765 42.4602C49.499 42.4602 49.5215 42.4596 49.5438 42.4579C49.8417 42.4377 50.0922 42.2793 50.3133 42.1396C50.4603 42.0467 50.6268 41.9414 50.7208 41.9414C50.815 41.9414 50.9818 42.0467 51.1287 42.1398C51.3498 42.2795 51.6 42.4377 51.8974 42.4579C51.9199 42.4593 51.9426 42.4602 51.9649 42.4602C52.2465 42.4602 52.5004 42.3449 52.7246 42.2432C52.8666 42.1788 53.0275 42.1056 53.1181 42.1056C53.2273 42.1198 53.3782 42.249 53.5114 42.3633C53.7075 42.5312 53.9299 42.7217 54.2167 42.7849C54.2905 42.8014 54.3701 42.8097 54.4525 42.8097C54.6694 42.8097 54.8797 42.7518 55.065 42.7007C55.2003 42.6634 55.3403 42.625 55.4339 42.625C55.4604 42.625 55.4744 42.6282 55.4804 42.63C55.5763 42.6605 55.7036 42.818 55.816 42.9571C55.974 43.1524 56.1528 43.3735 56.4114 43.4877C56.6234 43.5811 56.8468 43.5919 56.9967 43.5919C57.0801 43.5919 57.1653 43.588 57.2495 43.584C57.3193 43.5807 57.3883 43.5773 57.4552 43.5773C57.6059 43.5773 57.6505 43.5978 57.6603 43.604C57.7504 43.6599 57.8289 43.855 57.8981 44.0271C57.9848 44.2424 58.083 44.4863 58.2695 44.6636C58.4688 44.8529 58.7208 44.9542 58.9432 45.0436C59.0666 45.0932 59.2729 45.1762 59.3065 45.2295C59.3469 45.3066 59.2794 45.5303 59.2302 45.6935C59.1706 45.8906 59.1089 46.0947 59.1089 46.3121C59.1089 46.5288 59.1701 46.7327 59.2293 46.9296C59.2814 47.103 59.3465 47.3186 59.305 47.3969C59.2717 47.4499 59.0655 47.5326 58.9421 47.582C58.7191 47.6714 58.4663 47.7729 58.2668 47.9628C58.0801 48.1398 57.9819 48.3836 57.895 48.5985C57.8252 48.7709 57.7464 48.9662 57.6559 49.0226C57.6468 49.0283 57.6024 49.0487 57.4525 49.0487C57.3854 49.0487 57.316 49.0451 57.246 49.0418C57.1614 49.0376 57.0759 49.0337 56.9919 49.0337C56.8423 49.0337 56.6188 49.0445 56.4071 49.1379C56.1486 49.2517 55.97 49.4728 55.8122 49.6679C55.7001 49.8067 55.5732 49.9639 55.4781 49.9939C55.4721 49.9958 55.4579 49.9989 55.4312 49.9989C55.3376 49.9989 55.1976 49.9603 55.0621 49.923C54.8762 49.8718 54.6657 49.8138 54.4483 49.8138C54.3668 49.8138 54.2878 49.8222 54.2138 49.8384C53.927 49.9018 53.7053 50.0925 53.5095 50.2607C53.377 50.3745 53.2269 50.5037 53.1321 50.5168C53.1317 50.5168 53.131 50.5168 53.1304 50.5168C53.0262 50.5168 52.8661 50.4443 52.725 50.3803C52.5012 50.2788 52.2475 50.1638 51.9666 50.1638C51.9434 50.1638 51.9203 50.1644 51.8974 50.1661C51.6006 50.1863 51.3503 50.3443 51.1291 50.4837C50.9822 50.5764 50.8154 50.6815 50.721 50.6815Z" fill="white"/>
<path d="M50.7209 42.38C50.7768 42.4107 50.8512 42.4576 50.906 42.4924C51.1557 42.6502 51.4665 42.8467 51.8696 42.8742C51.9012 42.8763 51.9331 42.8773 51.9648 42.8773C52.3364 42.8773 52.647 42.7364 52.8967 42.6231C52.9498 42.5989 53.0205 42.5668 53.0761 42.5449C53.1268 42.5832 53.1916 42.6389 53.2397 42.6802C53.4615 42.8703 53.7377 43.1068 54.1253 43.1923C54.2296 43.2154 54.3394 43.2271 54.4519 43.2271C54.7254 43.2271 54.9749 43.1583 55.1754 43.1033C55.2285 43.0887 55.2986 43.0693 55.3544 43.0564C55.3978 43.1039 55.4513 43.1702 55.4914 43.2196C55.6696 43.4401 55.8915 43.7146 56.2429 43.8696C56.5266 43.9947 56.8086 44.0091 56.9962 44.0091C57.0862 44.0091 57.1779 44.0051 57.2688 44.0007C57.3238 43.998 57.3784 43.9953 57.4316 43.9947C57.4585 44.0524 57.4883 44.1268 57.511 44.1831C57.6083 44.4251 57.7296 44.7265 57.9822 44.9664C58.239 45.2102 58.5431 45.3326 58.7876 45.4307C58.8107 45.4399 58.837 45.4505 58.8639 45.4616C58.8526 45.5006 58.8407 45.54 58.8307 45.5731C58.7688 45.7782 58.6917 46.0333 58.6917 46.3124C58.6917 46.5904 58.7684 46.8453 58.8299 47.05C58.8401 47.084 58.8522 47.1244 58.8637 47.1644C58.8366 47.1755 58.8099 47.1861 58.7868 47.1955C58.5417 47.2936 58.2367 47.416 57.9797 47.6605C57.7273 47.9 57.6058 48.2009 57.5081 48.4427C57.4851 48.4994 57.4551 48.574 57.428 48.6317C57.3751 48.6311 57.3205 48.6282 57.2655 48.6255C57.1742 48.6211 57.0821 48.6169 56.9916 48.6169C56.8042 48.6169 56.5224 48.6313 56.2394 48.7562C55.8878 48.9108 55.666 49.1853 55.4878 49.406C55.4482 49.4552 55.3953 49.5209 55.3521 49.568C55.2959 49.5551 55.2258 49.5357 55.1727 49.5211C54.972 49.4656 54.7221 49.3969 54.4482 49.3969C54.3367 49.3969 54.2277 49.4083 54.1233 49.4313C53.7345 49.5171 53.4588 49.7541 53.2375 49.9444C53.1897 49.9852 53.1259 50.0401 53.0759 50.0784C53.0205 50.0565 52.95 50.0246 52.8973 50.0007C52.648 49.8877 52.3375 49.747 51.9665 49.747C51.9338 49.747 51.9012 49.7481 51.8698 49.7504C51.4675 49.7777 51.1567 49.9738 50.9068 50.1314C50.8516 50.1662 50.777 50.2133 50.7209 50.2437C50.6651 50.2133 50.5907 50.1662 50.5356 50.1316C50.2859 49.974 49.9754 49.7777 49.574 49.7504C49.5417 49.7481 49.5089 49.747 49.4762 49.747C49.1048 49.747 48.7945 49.8879 48.545 50.0011C48.492 50.0251 48.4216 50.0572 48.3661 50.079C48.3155 50.0407 48.2505 49.985 48.2021 49.9436C47.9804 49.7535 47.7042 49.5169 47.3165 49.4315C47.2123 49.4083 47.1025 49.3967 46.9899 49.3967C46.7165 49.3967 46.467 49.4654 46.2665 49.5205C46.2133 49.5351 46.1433 49.5544 46.0874 49.5674C46.0441 49.5198 45.9905 49.4536 45.9505 49.4039C45.7723 49.1834 45.5503 48.9092 45.1977 48.7535C44.9146 48.6292 44.633 48.6149 44.4459 48.6149C44.3561 48.6149 44.2648 48.6188 44.1741 48.6232C44.1187 48.6257 44.0636 48.6286 44.0101 48.6292C43.9832 48.5715 43.9532 48.4967 43.9302 48.4402C43.8329 48.1986 43.7116 47.8981 43.4594 47.6578C43.2026 47.4135 42.8985 47.2914 42.6541 47.1932C42.6311 47.184 42.6049 47.1734 42.5782 47.1623C42.5892 47.1234 42.6011 47.0842 42.6111 47.051C42.673 46.8462 42.7501 46.591 42.7501 46.3124C42.7501 46.0339 42.6734 45.779 42.612 45.5741C42.6017 45.5402 42.5897 45.4997 42.5782 45.4597C42.6053 45.4487 42.632 45.438 42.6553 45.4287C42.9002 45.3305 43.2053 45.2081 43.4623 44.9637C43.7147 44.7242 43.8362 44.4232 43.934 44.1814C43.9569 44.1248 43.9869 44.0501 44.014 43.9924C44.067 43.993 44.1216 43.996 44.1764 43.9987C44.2677 44.003 44.3598 44.0072 44.4503 44.0072C44.6374 44.0072 44.9192 43.9928 45.2027 43.868C45.5543 43.7133 45.7761 43.4388 45.9543 43.2181C45.9939 43.1689 46.0468 43.1033 46.0899 43.0562C46.1462 43.0691 46.2162 43.0885 46.2694 43.1031C46.4701 43.1585 46.72 43.2273 46.9939 43.2273C47.1054 43.2273 47.2144 43.2158 47.3188 43.1927C47.7071 43.1068 47.9826 42.87 48.204 42.6797C48.2517 42.6387 48.3157 42.5839 48.3659 42.5455C48.4214 42.5676 48.4918 42.5995 48.5446 42.6235C48.7942 42.7369 49.105 42.8778 49.4766 42.8778C49.5085 42.8778 49.5402 42.8767 49.5723 42.8746C49.9752 42.8473 50.2862 42.6508 50.5363 42.4928C50.5909 42.4574 50.6651 42.4105 50.7209 42.38ZM50.7209 41.5247C50.3072 41.5247 49.9154 42.0149 49.5158 42.0422C49.5027 42.043 49.4898 42.0434 49.4766 42.0434C49.0977 42.0434 48.6882 41.6889 48.3234 41.6889C48.2992 41.6889 48.2755 41.6904 48.2517 41.6937C47.8397 41.7518 47.5245 42.2925 47.1389 42.3779C47.0918 42.3884 47.0435 42.3927 46.9941 42.3927C46.6758 42.3927 46.3146 42.2075 46.0109 42.2075C45.9509 42.2075 45.8932 42.2148 45.8384 42.2321C45.4361 42.3592 45.2231 42.9474 44.8671 43.1041C44.7429 43.1589 44.5991 43.1727 44.4505 43.1727C44.2971 43.1727 44.1382 43.1579 43.9901 43.1579C43.83 43.1579 43.6822 43.1752 43.5665 43.2469C43.1989 43.4757 43.1639 44.097 42.8885 44.3586C42.5719 44.6596 41.9456 44.6961 41.7687 45.032C41.5721 45.4051 41.9169 45.9078 41.9169 46.312C41.9169 46.7146 41.5717 47.2165 41.7672 47.5882C41.9437 47.9241 42.5699 47.9612 42.8854 48.2616C43.1605 48.5238 43.1949 49.1451 43.5624 49.3733C43.6789 49.4456 43.8277 49.4629 43.9888 49.4629C44.1364 49.4629 44.2939 49.4486 44.4463 49.4486C44.5951 49.4486 44.7387 49.4623 44.8631 49.5169C45.22 49.6745 45.4336 50.2633 45.8367 50.3904C45.8915 50.4077 45.9493 50.415 46.0091 50.415C46.3121 50.415 46.6729 50.2304 46.9905 50.2304C47.0404 50.2304 47.0891 50.2349 47.1364 50.2454C47.5235 50.3306 47.8399 50.8715 48.2528 50.9296C48.2767 50.933 48.3009 50.9346 48.3255 50.9346C48.6896 50.9346 49.0983 50.5807 49.4766 50.5807C49.49 50.5807 49.5035 50.5811 49.5169 50.5822C49.916 50.6093 50.3074 51.0989 50.7211 51.0989C51.1355 51.0989 51.5273 50.6093 51.9267 50.5822C51.94 50.5813 51.9533 50.5807 51.9669 50.5807C52.3452 50.5807 52.7543 50.9344 53.1191 50.9344C53.1432 50.9344 53.1672 50.933 53.191 50.9296C53.6028 50.8715 53.9177 50.3308 54.3038 50.2454C54.3509 50.2349 54.3992 50.2306 54.4486 50.2306C54.7669 50.2306 55.1281 50.4159 55.4317 50.4159C55.4918 50.4159 55.5495 50.4086 55.6043 50.3913C56.0066 50.2641 56.2196 49.6759 56.5756 49.5192C56.6998 49.4644 56.8434 49.4506 56.992 49.4506C57.1454 49.4506 57.3042 49.4654 57.4526 49.4654C57.6127 49.4654 57.7605 49.4481 57.8762 49.3764C58.2438 49.1476 58.2788 48.5263 58.5542 48.2647C58.8708 47.9637 59.4971 47.9273 59.674 47.5913C59.8708 47.2182 59.5258 46.7155 59.5258 46.312C59.5258 45.9085 59.8712 45.4074 59.6757 45.0349C59.4992 44.699 58.8731 44.6619 58.5571 44.3615C58.282 44.1002 58.248 43.478 57.8805 43.2498C57.7644 43.1777 57.616 43.1604 57.4553 43.1604C57.3076 43.1604 57.1496 43.175 56.9968 43.175C56.848 43.175 56.7042 43.161 56.58 43.1064C56.2231 42.9488 56.0093 42.36 55.6064 42.2329C55.5516 42.2156 55.4939 42.2083 55.434 42.2083C55.131 42.2083 54.7702 42.393 54.4526 42.393C54.4028 42.393 54.354 42.3884 54.3067 42.3779C53.9196 42.2927 53.6034 41.7518 53.1903 41.6937C53.1666 41.6904 53.1426 41.6889 53.1184 41.6889C52.7535 41.6889 52.3444 42.0434 51.9654 42.0434C51.9523 42.0434 51.9394 42.043 51.9263 42.0422C51.5265 42.0151 51.1351 41.5247 50.7209 41.5247Z" fill="#312F2F"/>
<path d="M48.1734 46.9326L47.436 47.1087C47.3347 46.9465 47.289 46.7798 47.289 46.6076C47.289 45.8202 48.3482 45.1485 49.8041 44.9436V44.4619H50.5415V44.884H50.7164H50.9006V44.4619H51.638V44.9436C53.0845 45.1485 54.1535 45.8202 54.1535 46.6076C54.1535 46.7846 54.0981 46.9551 53.9968 47.1181L53.2598 46.942C53.3148 46.8348 53.3423 46.7239 53.3423 46.6076C53.3423 46.0428 52.6328 45.5603 51.638 45.3702V46.3392H50.9006V45.291L50.7164 45.2871L50.5415 45.291V46.3392H49.8041V45.3702C48.8089 45.5603 48.09 46.0428 48.09 46.6076C48.0898 46.7192 48.1177 46.83 48.1734 46.9326Z" fill="#AEAEAE"/>
<path d="M52.9449 32.4966L37.6292 41.9982L39.6472 45.251L54.9629 35.7494L52.9449 32.4966Z" fill="#312F2F"/>
<path d="M42.2716 45.5536C42.1651 45.5534 41.9954 45.4289 41.8455 45.3191C41.6586 45.1821 41.4466 45.0269 41.1946 44.9746C41.1117 44.9573 41.0246 44.9485 40.9293 44.9485C40.7515 44.9485 40.576 44.9791 40.4212 45.0062C40.297 45.0279 40.1796 45.0483 40.0906 45.0483C40.0337 45.0483 40.0152 45.0396 40.0152 45.0396C39.9408 44.9958 39.8801 44.7701 39.8359 44.6054C39.7826 44.4064 39.7275 44.2007 39.6131 44.0162C39.4987 43.8316 39.3392 43.6907 39.1846 43.5543C39.0491 43.4347 38.8805 43.2857 38.8745 43.1982C38.8749 43.1354 39.0068 42.9558 39.0858 42.8484C39.2279 42.655 39.3888 42.4359 39.4585 42.1702C39.5237 41.9207 39.4789 41.6619 39.4391 41.4334C39.4076 41.2504 39.3718 41.0428 39.4189 40.9478C39.4497 40.8851 39.6352 40.7821 39.758 40.7137C39.9872 40.5864 40.2467 40.4419 40.4189 40.1916C40.5792 39.9578 40.6144 39.6754 40.6452 39.4263C40.6673 39.2493 40.6923 39.0486 40.7569 38.9734C40.8076 38.9144 41.0043 38.8562 41.1479 38.8141C41.4035 38.7389 41.6926 38.6537 41.9135 38.4388C42.1236 38.2339 42.2115 37.955 42.2893 37.7091C42.3418 37.5423 42.4014 37.3533 42.4748 37.2922C42.5377 37.2399 42.7345 37.2143 42.8927 37.1938C43.1576 37.1593 43.4579 37.1203 43.7087 36.9404C43.9511 36.7662 44.0805 36.4996 44.1947 36.2643C44.2706 36.1077 44.3567 35.9304 44.4367 35.881C44.5126 35.8339 44.7089 35.8339 44.7927 35.8339L44.9894 35.8349C45.2137 35.8349 45.4728 35.8245 45.7085 35.6997C45.9813 35.5548 46.1495 35.3032 46.2981 35.081C46.3869 34.9485 46.4972 34.7834 46.5726 34.7501C46.5912 34.7419 46.6283 34.7319 46.6981 34.7319C46.7936 34.7319 46.9086 34.7497 47.0303 34.7686C47.175 34.7909 47.3246 34.8141 47.4784 34.8141C47.6172 34.8141 47.7392 34.7951 47.8511 34.7559C48.1423 34.6534 48.3472 34.432 48.5279 34.2367C48.6294 34.1269 48.7686 33.9764 48.8436 33.9574C48.8565 33.9541 48.8726 33.9526 48.8909 33.9526C48.9972 33.9526 49.1517 34.0064 49.3013 34.0585C49.5075 34.1304 49.7207 34.2046 49.9512 34.2046C49.9972 34.2046 50.0425 34.2015 50.0871 34.1952C50.3885 34.1527 50.6338 33.9841 50.8499 33.8353C50.9656 33.7559 51.1402 33.6356 51.2097 33.6356C51.3155 33.6356 51.4852 33.7603 51.6351 33.8701C51.822 34.0072 52.034 34.1627 52.286 34.215C52.3689 34.2323 52.4556 34.2409 52.5507 34.2409C52.7287 34.2409 52.9048 34.21 53.0601 34.1829C53.1845 34.1611 53.3018 34.1404 53.3908 34.1404C53.4473 34.1404 53.4654 34.149 53.4656 34.1492C53.5403 34.1932 53.6007 34.4189 53.6449 34.5835C53.6982 34.7828 53.7535 34.9885 53.8681 35.1734C53.9823 35.3576 54.1418 35.4983 54.296 35.6344C54.4317 35.7543 54.6005 35.9035 54.6068 35.9919C54.6064 36.0542 54.4744 36.2332 54.3956 36.3401C54.2533 36.5338 54.092 36.753 54.0224 37.0196C53.9573 37.2685 54.0021 37.5275 54.0417 37.7562C54.0734 37.9392 54.1095 38.147 54.0624 38.242C54.0315 38.3045 53.8458 38.4077 53.7231 38.4761C53.494 38.6034 53.2343 38.7479 53.0623 38.998C52.9021 39.2316 52.8668 39.5138 52.8358 39.7627C52.8137 39.9396 52.7885 40.1401 52.7239 40.2156C52.6732 40.2746 52.4767 40.3325 52.3333 40.3748C52.0775 40.4501 51.788 40.5355 51.5673 40.7512C51.3576 40.9557 51.2695 41.2344 51.1919 41.4805C51.1392 41.6471 51.0798 41.8357 51.0064 41.8965C50.9427 41.9497 50.7457 41.9755 50.5873 41.9962C50.3226 42.0308 50.0227 42.0697 49.7726 42.2494C49.5302 42.4234 49.4007 42.69 49.2865 42.9253C49.2104 43.0819 49.1244 43.2592 49.0443 43.3088C48.9687 43.3557 48.773 43.3557 48.6894 43.3557L48.491 43.3547C48.2669 43.3547 48.0083 43.3651 47.7727 43.4899C47.5001 43.6346 47.3319 43.886 47.1833 44.1079C47.0945 44.2405 46.9841 44.4053 46.909 44.4385C46.889 44.4472 46.8521 44.4572 46.7825 44.4572C46.6875 44.4572 46.5726 44.4395 46.4509 44.4208C46.3067 44.3985 46.1572 44.3753 46.0034 44.3753C45.8642 44.3753 45.7418 44.3945 45.6295 44.4341C45.3387 44.5358 45.1339 44.7578 44.953 44.9535C44.8514 45.0631 44.7126 45.2136 44.6378 45.2324C44.6247 45.2357 44.6088 45.2374 44.5905 45.2374C44.4844 45.2374 44.33 45.1836 44.1803 45.1315C43.9744 45.0596 43.7612 44.9854 43.5309 44.9854C43.4842 44.9854 43.4385 44.9885 43.3935 44.995C43.093 45.0373 42.8479 45.2059 42.6315 45.3547C42.5154 45.4335 42.3412 45.5534 42.2716 45.5536Z" fill="#AEAEAE"/>
<path d="M51.3079 34.0377H51.3089H51.3079ZM51.221 34.0878C51.2741 34.1226 51.3387 34.1701 51.3877 34.2059C51.598 34.3602 51.86 34.5523 52.1999 34.623C52.3116 34.6463 52.4261 34.6576 52.5501 34.6576C52.7643 34.6576 52.9592 34.6234 53.1314 34.5932C53.1574 34.5886 53.1845 34.5838 53.2112 34.5794C53.2222 34.6184 53.2329 34.658 53.2418 34.6914C53.2973 34.8983 53.3663 35.1557 53.5132 35.3927C53.6599 35.6291 53.8592 35.8052 54.0195 35.9467C54.0459 35.9703 54.0776 35.9982 54.1085 36.0261C54.0912 36.0499 54.0743 36.073 54.0595 36.0932C53.9032 36.3058 53.7085 36.5705 53.6189 36.9138C53.5307 37.2504 53.5862 37.5701 53.6306 37.8273C53.641 37.8876 53.6547 37.9672 53.6622 38.0305C53.6166 38.0578 53.5624 38.0881 53.5199 38.1116C53.2773 38.2465 52.9455 38.4309 52.7177 38.7625C52.5005 39.0793 52.4567 39.4297 52.4215 39.7111C52.4136 39.7736 52.4033 39.8574 52.3917 39.9201C52.3371 39.9389 52.2675 39.9593 52.2147 39.9749C51.9427 40.0552 51.5703 40.165 51.2758 40.4526C50.9911 40.7305 50.8816 41.0765 50.7939 41.3547C50.7749 41.4147 50.7495 41.4954 50.727 41.5544C50.668 41.565 50.5909 41.575 50.5327 41.5827C50.2507 41.6194 49.8643 41.6698 49.5285 41.911C49.2009 42.1465 49.0402 42.4773 48.911 42.7432C48.8826 42.8016 48.8443 42.8808 48.8128 42.9362C48.7841 42.9379 48.744 42.9389 48.6888 42.9389L48.5967 42.9383L48.4906 42.9377C48.1961 42.9377 47.8818 42.96 47.5762 43.1219C47.2113 43.3156 46.9945 43.6395 46.8361 43.876C46.8036 43.9246 46.7602 43.9894 46.7244 44.0373C46.6642 44.0319 46.5881 44.0202 46.5137 44.0086C46.3611 43.985 46.1879 43.9581 46.0022 43.9581C45.815 43.9581 45.6475 43.985 45.4911 44.04C45.102 44.1764 44.8382 44.4617 44.6456 44.6701C44.6085 44.7103 44.5595 44.7633 44.5186 44.8039C44.4569 44.7864 44.3765 44.7585 44.3167 44.7374C44.1003 44.662 43.8308 44.568 43.5301 44.568C43.4638 44.568 43.3977 44.5726 43.335 44.5815C42.9365 44.6378 42.623 44.8533 42.3942 45.0109C42.3546 45.0382 42.3035 45.0732 42.2591 45.102C42.2057 45.067 42.1407 45.0194 42.0915 44.9834C41.8812 44.8294 41.6194 44.6376 41.2799 44.5669C41.168 44.5436 41.0532 44.5321 40.9287 44.5321C40.7151 44.5321 40.5206 44.5661 40.3489 44.5959C40.3226 44.6005 40.2953 44.6053 40.2684 44.6097C40.2574 44.5707 40.2468 44.5311 40.2378 44.4975C40.1824 44.2908 40.1134 44.0334 39.9666 43.7966C39.8197 43.5598 39.6202 43.3835 39.4597 43.242C39.4333 43.2186 39.4018 43.1907 39.3712 43.163C39.3885 43.139 39.4058 43.1155 39.4208 43.095C39.5769 42.8829 39.7709 42.6188 39.8612 42.2745C39.9487 41.9383 39.8935 41.619 39.8491 41.3624C39.8387 41.3022 39.8249 41.2226 39.8174 41.159C39.8631 41.1317 39.9172 41.1015 39.9598 41.0779C40.2022 40.9433 40.534 40.7586 40.7622 40.4268C40.9796 40.1098 41.0231 39.7592 41.0584 39.4774C41.0661 39.4149 41.0765 39.3311 41.0882 39.2684C41.1428 39.2496 41.2124 39.2292 41.2651 39.2138C41.5367 39.1337 41.9087 39.0243 42.2041 38.7369C42.4888 38.4591 42.5982 38.1127 42.686 37.8344C42.7049 37.7744 42.7301 37.6941 42.7527 37.6349C42.8114 37.6243 42.8879 37.6145 42.9454 37.607C43.2279 37.5703 43.6147 37.5199 43.9513 37.2785C44.2792 37.043 44.4399 36.712 44.5689 36.4461C44.5972 36.3877 44.6356 36.3087 44.6668 36.2533C44.6958 36.2516 44.736 36.2504 44.7917 36.2504L44.8834 36.251L44.9886 36.2516C45.2833 36.2516 45.5979 36.2293 45.9034 36.0674C46.2686 35.8735 46.4853 35.5492 46.6437 35.3127C46.6762 35.2641 46.7194 35.1997 46.755 35.1518C46.8153 35.1572 46.8913 35.1689 46.9658 35.1805C47.1185 35.2041 47.2917 35.231 47.4779 35.231C47.6644 35.231 47.8311 35.2043 47.99 35.1489C48.3778 35.0123 48.6411 34.7276 48.8332 34.5198C48.8705 34.4794 48.9199 34.4262 48.9608 34.3856C49.0227 34.4031 49.1031 34.4312 49.1634 34.4521C49.3799 34.5275 49.6494 34.6213 49.9504 34.6213C50.0161 34.6213 50.0813 34.6167 50.1447 34.608C50.5432 34.5519 50.8566 34.3362 51.0855 34.1786C51.1255 34.1513 51.1764 34.1163 51.221 34.0878ZM46.804 35.0932H46.8051H46.804ZM44.7035 36.1972H44.7046H44.7035ZM42.7833 37.5678H42.7843H42.7833ZM41.1069 39.1938H41.108H41.1069ZM51.2091 33.2186C50.8243 33.2186 50.451 33.7228 50.0286 33.7822C50.0029 33.7858 49.9769 33.7874 49.9506 33.7874C49.625 33.7874 49.2382 33.5354 48.8903 33.5354C48.8395 33.5354 48.7895 33.5409 48.7407 33.5531C48.3601 33.6497 48.1079 34.2232 47.7132 34.3623C47.6406 34.3877 47.5614 34.3971 47.4781 34.3971C47.2323 34.3971 46.9505 34.3149 46.6975 34.3149C46.5931 34.3149 46.4935 34.3289 46.4032 34.3687C46.0387 34.53 45.8797 35.1363 45.5126 35.331C45.3671 35.4081 45.1814 35.4179 44.9888 35.4179C44.9236 35.4179 44.8575 35.4169 44.7919 35.4169C44.5805 35.4169 44.3742 35.4286 44.2162 35.5265C43.8644 35.7447 43.7902 36.3679 43.4651 36.6016C43.1274 36.844 42.5134 36.7172 42.2072 36.9719C41.8879 37.2385 41.905 37.8642 41.6222 38.14C41.322 38.4322 40.6959 38.4032 40.4402 38.7017C40.1655 39.0218 40.2949 39.6344 40.075 39.9553C39.8332 40.3072 39.2157 40.4172 39.0452 40.7624C38.853 41.15 39.1509 41.6965 39.055 42.0644C38.9443 42.4864 38.4316 42.8483 38.4585 43.227C38.4877 43.6472 39.0456 43.8925 39.2586 44.236C39.471 44.5782 39.442 45.1866 39.8043 45.3994C39.8872 45.4482 39.9846 45.4655 40.0907 45.4655C40.346 45.4655 40.6519 45.3656 40.9294 45.3656C40.9913 45.3656 41.0517 45.3706 41.1098 45.3827C41.4815 45.4598 41.8383 45.9696 42.271 45.9705C42.271 45.9705 42.2712 45.9705 42.2714 45.9705C42.6562 45.9705 43.0294 45.4663 43.4519 45.4069C43.4778 45.4031 43.504 45.4015 43.5305 45.4015C43.8556 45.4015 44.2427 45.6537 44.5901 45.6537C44.641 45.6537 44.6908 45.6483 44.7396 45.636C45.1204 45.5395 45.3719 44.9652 45.7673 44.8268C45.8398 44.8014 45.9193 44.7918 46.0028 44.7918C46.2481 44.7918 46.5295 44.874 46.7821 44.874C46.8868 44.874 46.9866 44.8598 47.0766 44.82C47.4414 44.6595 47.6006 44.0532 47.9677 43.8583C48.1129 43.7812 48.2984 43.7714 48.491 43.7714C48.5567 43.7714 48.6231 43.7724 48.6892 43.7724C48.9001 43.7724 49.1061 43.7608 49.2638 43.663C49.6159 43.4446 49.6903 42.8214 50.0154 42.5877C50.3529 42.3456 50.9667 42.4723 51.2729 42.2167C51.5926 41.9508 51.5753 41.3253 51.8581 41.0494C52.158 40.7565 52.7839 40.7855 53.0399 40.487C53.3146 40.1669 53.1856 39.555 53.4055 39.234C53.647 38.8824 54.2648 38.7721 54.4353 38.4272C54.6274 38.0395 54.3292 37.4924 54.4255 37.1251C54.5357 36.7025 55.0489 36.3412 55.022 35.9625C54.9924 35.5417 54.4344 35.2964 54.2219 34.9536C54.0091 34.6107 54.0384 34.0029 53.6758 33.7895C53.593 33.7407 53.4959 33.7236 53.39 33.7236C53.1343 33.7236 52.8279 33.8241 52.5501 33.8241C52.4886 33.8241 52.4282 33.8191 52.3702 33.807C51.9986 33.7299 51.6416 33.219 51.2093 33.219C51.2095 33.2186 51.2093 33.2186 51.2091 33.2186Z" fill="#312F2F"/>
<path d="M41.3819 44.1198C41.2756 44.1198 41.1057 43.9952 40.9558 43.8853C40.7691 43.7484 40.5573 43.5933 40.3058 43.5406C40.2222 43.5233 40.1359 43.5147 40.0411 43.5147C39.8631 43.5147 39.6876 43.5454 39.5323 43.5727C39.4079 43.5944 39.2903 43.615 39.2011 43.615C39.1444 43.615 39.1259 43.6062 39.1257 43.6062C39.0515 43.5625 38.9908 43.3367 38.9466 43.1719C38.8933 42.9728 38.8382 42.7671 38.7238 42.5827C38.6094 42.3982 38.4499 42.2573 38.2955 42.121C38.1598 42.0012 37.991 41.8519 37.9847 41.7636C37.9852 41.7014 38.1169 41.5224 38.1957 41.4153C38.338 41.2216 38.4993 41.0022 38.569 40.7356C38.6342 40.4869 38.5894 40.2279 38.5498 39.9994C38.5181 39.8164 38.4823 39.6086 38.5294 39.5132C38.5598 39.4521 38.7449 39.3492 38.8672 39.281C39.0971 39.1534 39.3574 39.0086 39.5296 38.757C39.6894 38.524 39.7247 38.2418 39.7557 37.9929C39.7778 37.816 39.803 37.6155 39.8677 37.54C39.9183 37.4808 40.1151 37.4229 40.2587 37.3806C40.5142 37.3056 40.8033 37.2203 41.024 37.0054C41.2343 36.8005 41.3222 36.5217 41.4 36.2757C41.4525 36.109 41.5121 35.9199 41.5857 35.8587C41.6482 35.8066 41.8452 35.7809 42.0034 35.7605C42.2683 35.7259 42.5686 35.6869 42.8194 35.5071C43.0618 35.3328 43.1912 35.0662 43.3054 34.8309C43.3813 34.6746 43.4674 34.4972 43.5472 34.4476C43.6233 34.4005 43.8198 34.4005 43.9038 34.4005L44.0997 34.4016C44.3242 34.4016 44.5835 34.3911 44.8192 34.2661C45.092 34.1214 45.2602 33.8697 45.4088 33.6477C45.4976 33.5149 45.6079 33.3501 45.6831 33.3167C45.7019 33.3086 45.7392 33.2986 45.809 33.2986C45.9041 33.2986 46.0189 33.3163 46.1406 33.3351C46.2848 33.3574 46.4343 33.3803 46.5879 33.3803C46.7273 33.3803 46.8499 33.3611 46.9622 33.3215C47.2528 33.2198 47.4579 32.9982 47.6388 32.8027C47.7403 32.6931 47.8795 32.5428 47.9543 32.5239C47.9679 32.5205 47.9839 32.5189 48.0021 32.5189C48.1079 32.5189 48.2624 32.5726 48.4118 32.6247C48.6084 32.6933 48.8314 32.7711 49.0619 32.7711C49.108 32.7711 49.1532 32.7681 49.1976 32.7619C49.499 32.7194 49.7443 32.5508 49.9604 32.4019C50.0761 32.3225 50.2508 32.2023 50.3202 32.2023C50.426 32.2023 50.5957 32.3269 50.7456 32.4367C50.9325 32.5739 51.1445 32.7294 51.3967 32.7817C51.4794 32.799 51.5659 32.8073 51.6605 32.8073C51.8385 32.8073 52.0142 32.7765 52.1695 32.7494C52.2941 32.7277 52.4117 32.7071 52.5009 32.7071C52.5576 32.7071 52.5761 32.7158 52.5764 32.7158C52.6508 32.7598 52.7112 32.9855 52.7554 33.1502C52.8087 33.3492 52.864 33.5552 52.9786 33.74C53.0928 33.9241 53.2523 34.065 53.4065 34.2013C53.5422 34.3211 53.711 34.4701 53.7173 34.5585C53.7169 34.6206 53.5849 34.7999 53.5063 34.9068C53.3638 35.1004 53.2025 35.3197 53.1328 35.5865C53.0678 35.8353 53.1126 36.0942 53.1522 36.3226C53.1839 36.5058 53.2198 36.7134 53.1727 36.8093C53.1422 36.8702 52.9571 36.9733 52.8346 37.0413C52.6047 37.169 52.3444 37.3139 52.1724 37.5655C52.0126 37.7983 51.9773 38.0805 51.9463 38.3293C51.9242 38.5063 51.899 38.7068 51.8344 38.782C51.7837 38.8412 51.5868 38.8992 51.4431 38.9415C51.1878 39.0167 50.8987 39.102 50.678 39.3166C50.4675 39.5215 50.3796 39.8006 50.3018 40.0468C50.2493 40.2133 50.1897 40.4021 50.1165 40.4632C50.0536 40.5155 49.8568 40.5413 49.6986 40.562C49.4335 40.5966 49.1328 40.6358 48.8822 40.8163C48.6409 40.9899 48.5112 41.2562 48.3968 41.4911C48.3209 41.6475 48.2347 41.8248 48.1544 41.8746C48.0783 41.922 47.8801 41.922 47.7953 41.922L47.6054 41.9209C47.3797 41.9209 47.119 41.9313 46.883 42.0566C46.6102 42.2006 46.4418 42.4526 46.293 42.675C46.2044 42.8073 46.0941 42.9722 46.0193 43.0051C45.9999 43.0137 45.9628 43.0235 45.893 43.0235C45.7978 43.0235 45.6829 43.0058 45.5614 42.987C45.417 42.9647 45.2675 42.9416 45.1139 42.9416C44.9745 42.9416 44.8521 42.9607 44.7398 43.0003C44.449 43.1021 44.2442 43.3236 44.0632 43.5191C43.9617 43.6287 43.8225 43.7792 43.7477 43.7982C43.7341 43.8015 43.7181 43.8032 43.7 43.8032C43.5939 43.8032 43.4394 43.7494 43.29 43.6971C43.0839 43.6252 42.8704 43.551 42.6401 43.551C42.5941 43.551 42.5488 43.5539 42.5044 43.5602C42.2033 43.6031 41.9584 43.7715 41.7424 43.9199C41.6268 43.9995 41.4517 44.1198 41.3819 44.1198Z" fill="white"/>
<path d="M50.3316 32.6545C50.3848 32.6895 50.4496 32.7369 50.4986 32.7729C50.7089 32.9272 50.9706 33.1191 51.3118 33.19C51.4229 33.2129 51.5367 33.2242 51.6599 33.2242C51.874 33.2242 52.0688 33.19 52.2408 33.16C52.2673 33.1554 52.2948 33.1506 52.3219 33.146C52.3329 33.185 52.3435 33.2248 52.3525 33.2583C52.4079 33.4651 52.4769 33.7225 52.6241 33.9597C52.7708 34.196 52.9701 34.372 53.1303 34.5135C53.157 34.537 53.1887 34.565 53.2193 34.5929C53.202 34.6166 53.1852 34.6396 53.1704 34.6598C53.0138 34.8726 52.8192 35.1373 52.7297 35.4801C52.6416 35.817 52.6968 36.1367 52.7412 36.3937C52.7516 36.4537 52.7654 36.5331 52.7729 36.5965C52.7275 36.6236 52.6735 36.6536 52.6316 36.6769C52.3886 36.812 52.0557 36.9971 51.8285 37.3291C51.6113 37.6459 51.5676 37.996 51.5324 38.2774C51.5244 38.3399 51.5142 38.4237 51.5025 38.4867C51.4477 38.5054 51.3781 38.5259 51.3252 38.5415C51.0536 38.6215 50.6816 38.7309 50.3862 39.0184C50.1013 39.2962 49.9921 39.6426 49.9041 39.9211C49.8852 39.9809 49.8599 40.0613 49.8374 40.1203C49.7787 40.1309 49.7022 40.1409 49.6444 40.1484C49.3618 40.1853 48.9746 40.2358 48.6394 40.4773C48.312 40.7127 48.1511 41.0432 48.0221 41.3087C47.9935 41.3673 47.9549 41.4467 47.9235 41.5022C47.8941 41.5038 47.8528 41.5051 47.7955 41.5051L47.7069 41.5047L47.6056 41.504C47.3095 41.504 46.9933 41.5263 46.689 41.6877C46.3226 41.8813 46.1054 42.206 45.9468 42.443C45.9145 42.4913 45.8713 42.5558 45.8359 42.6035C45.7757 42.5981 45.6994 42.5864 45.6252 42.5749C45.4726 42.5514 45.2998 42.5247 45.1141 42.5247C44.9267 42.5247 44.759 42.5516 44.6026 42.6066C44.2137 42.7427 43.9499 43.0276 43.7573 43.2358C43.72 43.2763 43.6706 43.3294 43.6297 43.3701C43.568 43.3526 43.4874 43.3244 43.4273 43.3036C43.2108 43.2281 42.9413 43.1341 42.6403 43.1341C42.5747 43.1341 42.5096 43.1387 42.4448 43.1477C42.0478 43.2044 41.7476 43.4107 41.5065 43.5764C41.4665 43.6039 41.4152 43.6391 41.3702 43.6681C41.3168 43.6331 41.2518 43.5856 41.2026 43.5495C40.9925 43.3957 40.7314 43.2042 40.3902 43.1327C40.2805 43.11 40.1632 43.0983 40.0415 43.0983C39.8274 43.0983 39.6328 43.1323 39.4608 43.1625C39.4343 43.1671 39.407 43.1719 39.3801 43.1764C39.3691 43.1375 39.3585 43.0979 39.3495 43.0645C39.2941 42.8578 39.2251 42.6001 39.0781 42.3634C38.9314 42.1268 38.7317 41.9507 38.5715 41.809C38.5448 41.7854 38.5131 41.7575 38.4825 41.7296C38.4998 41.7058 38.5166 41.6827 38.5314 41.6624C38.6878 41.4498 38.8824 41.1851 38.972 40.8419C39.0602 40.5053 39.0048 40.1855 38.9604 39.9286C38.95 39.8683 38.9362 39.7891 38.9287 39.7256C38.9741 39.6985 39.0279 39.6684 39.0698 39.6451C39.3128 39.51 39.6455 39.325 39.8731 38.9927C40.0902 38.6759 40.134 38.3258 40.169 38.0446C40.1769 37.9819 40.1872 37.8983 40.1988 37.8353C40.2537 37.8166 40.3233 37.7962 40.3762 37.7805C40.6478 37.7005 41.0198 37.5911 41.3152 37.3037C41.5999 37.0258 41.7093 36.6794 41.797 36.4012C41.816 36.3411 41.8412 36.2609 41.8637 36.2017C41.9225 36.1911 41.999 36.1813 42.0565 36.1738C42.3389 36.1371 42.7258 36.0867 43.0624 35.8453C43.3902 35.6098 43.5509 35.2788 43.6799 35.0129C43.7083 34.9545 43.7466 34.8755 43.7779 34.8201C43.8069 34.8184 43.8471 34.8171 43.9028 34.8171L43.9945 34.8178L44.0997 34.8184C44.3944 34.8184 44.7089 34.7961 45.0145 34.6342C45.3796 34.4403 45.5966 34.116 45.7548 33.8794C45.7873 33.8309 45.8305 33.7665 45.8661 33.7183C45.9263 33.7238 46.0024 33.7354 46.0766 33.7469C46.229 33.7704 46.402 33.7971 46.5877 33.7971C46.7751 33.7971 46.9428 33.7702 47.0994 33.7152C47.4881 33.5791 47.7519 33.2942 47.9445 33.086C47.9818 33.0455 48.0312 32.9924 48.0721 32.9517C48.1338 32.9693 48.2144 32.9974 48.2745 33.0182C48.491 33.0937 48.7605 33.1877 49.0615 33.1877C49.1271 33.1877 49.1922 33.1831 49.2557 33.1743C49.6544 33.1183 49.9679 32.9026 50.1966 32.745C50.2362 32.7183 50.2872 32.6833 50.3316 32.6545ZM50.3197 31.7856C49.935 31.7856 49.5619 32.2898 49.1392 32.3492C49.1136 32.3527 49.0877 32.3544 49.0613 32.3544C48.7359 32.3544 48.3489 32.1022 48.0016 32.1022C47.9506 32.1022 47.9003 32.1076 47.8514 32.1201C47.4708 32.2166 47.2186 32.7902 46.8234 32.9286C46.7507 32.9542 46.6713 32.9636 46.5875 32.9636C46.3424 32.9636 46.061 32.8817 45.8084 32.8817C45.7038 32.8817 45.6041 32.8957 45.5141 32.9355C45.1495 33.0968 44.9905 33.7031 44.6235 33.8978C44.478 33.9749 44.2923 33.9847 44.0997 33.9847C44.0345 33.9847 43.9684 33.9837 43.9028 33.9837C43.6914 33.9837 43.4851 33.9953 43.3271 34.0933C42.9753 34.3115 42.9011 34.9347 42.5759 35.1683C42.2383 35.4107 41.6243 35.284 41.3181 35.5387C40.9988 35.8053 41.0159 36.431 40.733 36.7067C40.4327 36.9989 39.8068 36.97 39.5511 37.2684C39.2763 37.5886 39.4054 38.2005 39.1855 38.5215C38.9439 38.8739 38.3266 38.984 38.1556 39.3283C37.9639 39.7166 38.2617 40.2631 38.1654 40.6303C38.0552 41.053 37.542 41.4142 37.5687 41.7929C37.5983 42.2137 38.1563 42.459 38.3695 42.8025C38.5819 43.1448 38.5529 43.7532 38.9149 43.966C38.9979 44.0147 39.0952 44.032 39.2013 44.032C39.4573 44.032 39.7636 43.9318 40.0411 43.9318C40.1025 43.9318 40.1626 43.9368 40.2203 43.9487C40.5921 44.0264 40.9492 44.5364 41.3814 44.5364C41.3814 44.5364 41.3816 44.5364 41.3819 44.5364C41.7666 44.5364 42.1403 44.0329 42.5624 43.9728C42.588 43.9693 42.6139 43.9676 42.6403 43.9676C42.9657 43.9676 43.3527 44.2198 43.7 44.2198C43.751 44.2198 43.8012 44.2144 43.8502 44.2019C44.2308 44.1054 44.483 43.5318 44.8784 43.3934C44.9511 43.3678 45.0305 43.3584 45.1143 43.3584C45.3596 43.3584 45.641 43.4403 45.8934 43.4403C45.998 43.4403 46.0977 43.4263 46.1877 43.3865C46.5525 43.226 46.7113 42.6189 47.0787 42.4249C47.225 42.3473 47.4122 42.3377 47.606 42.3377C47.669 42.3377 47.7328 42.3388 47.7961 42.3388C48.0085 42.3388 48.2159 42.3275 48.3747 42.2289C48.7267 42.0105 48.8016 41.3882 49.1267 41.1543C49.4635 40.9115 50.0778 41.0382 50.3841 40.7833C50.7037 40.5167 50.6861 39.8912 50.9692 39.6153C51.2695 39.3231 51.8954 39.3521 52.1512 39.0536C52.4259 38.7334 52.2969 38.1215 52.5169 37.8005C52.7581 37.4483 53.3757 37.338 53.5468 36.9937C53.7385 36.6054 53.4407 36.0589 53.537 35.6917C53.6472 35.269 54.1604 34.9078 54.1335 34.5291C54.1039 34.1083 53.5459 33.863 53.3331 33.5201C53.1205 33.1773 53.1497 32.5695 52.7873 32.3561C52.7043 32.3073 52.607 32.29 52.5009 32.29C52.245 32.29 51.9382 32.3902 51.6605 32.3902C51.5993 32.3902 51.5392 32.3855 51.4817 32.3734C51.1103 32.2962 50.7533 31.7854 50.3208 31.7854C50.3202 31.7856 50.3199 31.7856 50.3197 31.7856Z" fill="#312F2F"/>
<path d="M44.0132 40.0318L43.4795 40.5702C43.3079 40.4858 43.1812 40.3682 43.0903 40.2219C42.6751 39.5529 43.2212 38.4234 44.3502 37.4819L44.0964 37.0726L44.7229 36.6839L44.9453 37.0426L45.0939 36.9505L45.2504 36.8533L45.028 36.4946L45.6546 36.1059L45.9086 36.5153C47.2457 35.9269 48.5083 35.9342 48.9233 36.6032C49.0165 36.7535 49.0594 36.9277 49.0592 37.1197L48.3401 37.3586C48.3305 37.2385 48.2953 37.1297 48.234 37.0309C47.9364 36.5509 47.0792 36.5149 46.1335 36.8779L46.6444 37.7012L46.0179 38.0899L45.4653 37.1993L45.3067 37.2931L45.1602 37.3886L45.7127 38.2792L45.0862 38.6679L44.5753 37.8446C43.8298 38.5307 43.4734 39.3198 43.771 39.7996C43.83 39.8945 43.9121 39.9741 44.0132 40.0318Z" fill="#AEAEAE"/>
<path fill-rule="evenodd" clip-rule="evenodd" d="M42.4788 86.0025C41.5392 86.0025 40.7172 86.1556 39.9821 86.4058C39.4785 86.5772 38.9312 86.3079 38.7598 85.8043C38.5884 85.3007 38.8577 84.7534 39.3613 84.582C40.2911 84.2655 41.3226 84.0759 42.4788 84.0759C43.6352 84.0759 44.6665 84.2777 45.5962 84.6113C46.0969 84.791 46.3572 85.3425 46.1776 85.8433C45.9979 86.344 45.4463 86.6043 44.9456 86.4247C44.2156 86.1628 43.4041 86.0025 42.4788 86.0025ZM34.5698 89.014C34.9026 89.429 34.836 90.0352 34.421 90.3681C33.5458 91.0699 32.514 91.7252 31.2645 91.7252H28.5393C28.0073 91.7252 27.576 91.2939 27.576 90.7619C27.576 90.2299 28.0073 89.7986 28.5393 89.7986H31.2645C31.8233 89.7986 32.4121 89.5095 33.2157 88.8651C33.6307 88.5323 34.237 88.5989 34.5698 89.014ZM50.3273 89.0729C50.6532 88.6524 51.2582 88.5757 51.6787 88.9016C52.4682 89.5135 53.0733 89.7986 53.6566 89.7986H56.6068C57.1388 89.7986 57.57 90.2299 57.57 90.7619C57.57 91.2939 57.1388 91.7252 56.6068 91.7252H53.6566C52.4159 91.7252 51.382 91.1091 50.4985 90.4243C50.078 90.0984 50.0014 89.4934 50.3273 89.0729ZM5.56012 90.7619C5.56012 90.2299 5.99139 89.7986 6.52339 89.7986V90.7619V91.7252C5.99139 91.7252 5.56012 91.2939 5.56012 90.7619ZM6.52339 90.7619V91.7252H9.2497C9.7817 91.7252 10.213 91.2939 10.213 90.7619C10.213 90.2299 9.7817 89.7986 9.2497 89.7986H6.52339V90.7619ZM15.197 90.7619C15.197 90.2299 15.6283 89.7986 16.1603 89.7986H21.6276C22.1596 89.7986 22.5908 90.2299 22.5908 90.7619C22.5908 91.2939 22.1596 91.7252 21.6276 91.7252H16.1603C15.6283 91.7252 15.197 91.2939 15.197 90.7619ZM63.1 90.7619C63.1 90.2299 63.5312 89.7986 64.0632 89.7986H67.0132C67.5452 89.7986 67.9765 90.2299 67.9765 90.7619C67.9765 91.2939 67.5453 91.7252 67.0133 91.7252H64.0632C63.5312 91.7252 63.1 91.2939 63.1 90.7619Z" fill="#312F2F"/>
<path d="M44.908 99.5901L45.4887 100.813C44.9541 100.98 44.4045 101.056 43.8386 101.056C41.2422 101.056 39.0288 99.3004 38.356 96.8873H36.768V95.6655H38.1582C38.1582 95.574 38.1582 95.467 38.1582 95.3751C38.1582 95.2682 38.1582 95.1767 38.1582 95.0698H36.768V93.848H38.356C39.0288 91.4505 41.2422 89.6785 43.8386 89.6785C44.4192 89.6785 44.9839 89.7704 45.5185 89.9384L44.9391 91.1602C44.5872 91.0687 44.2204 91.0228 43.8386 91.0228C41.9759 91.0228 40.3879 92.1985 39.7612 93.848H42.9532V95.0698H39.5013C39.5013 95.1767 39.4862 95.2682 39.4862 95.3751C39.4862 95.467 39.5013 95.5742 39.5013 95.6655H42.9532V96.8873H39.7612C40.3879 98.5367 41.9759 99.7281 43.8386 99.7281C44.2054 99.7283 44.5722 99.6822 44.908 99.5901Z" fill="#312F2F"/>
<path d="M6.52337 95.3677C9.06718 95.3677 11.1293 93.3056 11.1293 90.7617C11.1293 88.2179 9.06718 86.1558 6.52337 86.1558C3.97956 86.1558 1.91739 88.2179 1.91739 90.7617C1.91739 93.3056 3.97956 95.3677 6.52337 95.3677Z" fill="#312F2F"/>
<path fill-rule="evenodd" clip-rule="evenodd" d="M6.52338 87.119C4.51157 87.119 2.88067 88.7499 2.88067 90.7618C2.88067 92.7736 4.51157 94.4045 6.52338 94.4045C8.5352 94.4045 10.1661 92.7736 10.1661 90.7618C10.1661 88.7499 8.5352 87.119 6.52338 87.119ZM0.954132 90.7618C0.954132 87.6859 3.44757 85.1925 6.52338 85.1925C9.59919 85.1925 12.0926 87.6859 12.0926 90.7618C12.0926 93.8376 9.59919 96.331 6.52338 96.331C3.44757 96.331 0.954132 93.8376 0.954132 90.7618Z" fill="#312F2F"/>
<path d="M67.0129 95.3677C69.5567 95.3677 71.6189 93.3056 71.6189 90.7617C71.6189 88.2179 69.5567 86.1558 67.0129 86.1558C64.4691 86.1558 62.4069 88.2179 62.4069 90.7617C62.4069 93.3056 64.4691 95.3677 67.0129 95.3677Z" fill="#312F2F"/>
<path fill-rule="evenodd" clip-rule="evenodd" d="M67.0129 87.119C65.0011 87.119 63.3702 88.7499 63.3702 90.7618C63.3702 92.7736 65.0011 94.4045 67.0129 94.4045C69.0248 94.4045 70.6557 92.7736 70.6557 90.7618C70.6557 88.7499 69.0248 87.119 67.0129 87.119ZM61.4437 90.7618C61.4437 87.6859 63.9371 85.1925 67.0129 85.1925C70.0888 85.1925 72.5822 87.6859 72.5822 90.7618C72.5822 93.8376 70.0888 96.331 67.0129 96.331C63.9371 96.331 61.4437 93.8376 61.4437 90.7618Z" fill="#312F2F"/>
</svg>
