<svg width="454" height="322" viewBox="0 0 454 322" fill="none" xmlns="http://www.w3.org/2000/svg">
<g clip-path="url(#clip0)">
<path opacity="0.2" d="M270.15 185.36C213.993 205.287 -13.3165 248.961 108.493 295.63C407.857 410.236 521.202 105.652 414.876 103.277C308.551 100.903 338.487 161.2 270.15 185.36Z" fill="#ACACAC"/>
<path d="M3.50977 186.289C3.50977 186.289 21.0586 188.045 37.3688 200.847C58.1178 217.161 109.939 251.336 128.004 252.781C128.004 252.781 149.062 228.415 164.134 213.753C171.876 206.216 184.779 200.021 184.779 200.021C184.779 200.021 124.494 179.268 110.145 166.672C95.7962 154.076 72.8795 148.913 72.8795 148.913L3.50977 186.289Z" fill="white" stroke="#312F2F" stroke-width="2" stroke-miterlimit="10"/>
<path d="M6.29694 167.911C6.29694 167.911 27.5621 167.085 53.8854 190.832C80.2087 214.579 121.603 234.816 121.603 234.816C121.603 234.816 161.45 195.272 179.618 184.741C179.618 184.741 140.288 175.035 109.629 147.778C78.97 120.52 68.5439 125.373 68.5439 125.373L6.29694 167.911Z" fill="white" stroke="#312F2F" stroke-width="2" stroke-miterlimit="10"/>
<path d="M47.6917 56.5058C47.6917 56.5058 107.668 36.682 128.623 17.994C128.623 17.994 136.778 36.682 140.701 60.2227C148.443 106.478 143.591 130.432 187.154 150.359L117.99 206.32C117.99 206.32 79.1764 192.278 69.6794 159.754C59.6662 125.373 64.8276 76.4327 47.6917 56.5058Z" fill="white" stroke="#312F2F" stroke-width="2" stroke-miterlimit="10"/>
<path d="M73.9118 74.5743L94.1446 65.4884" stroke="#312F2F" stroke-width="2" stroke-miterlimit="10" stroke-linecap="round"/>
<path d="M81.6539 106.272L129.036 81.2854" stroke="#312F2F" stroke-width="2" stroke-miterlimit="10" stroke-linecap="round"/>
<path d="M84.854 120.21L132.03 95.637" stroke="#312F2F" stroke-width="2" stroke-miterlimit="10" stroke-linecap="round"/>
<path d="M84.854 137.453L135.023 109.885" stroke="#312F2F" stroke-width="2" stroke-miterlimit="10" stroke-linecap="round"/>
<path d="M88.1573 153.869L138.946 123.617" stroke="#312F2F" stroke-width="2" stroke-miterlimit="10" stroke-linecap="round"/>
<path d="M93.8349 168.634L143.385 137.659" stroke="#312F2F" stroke-width="2" stroke-miterlimit="10" stroke-linecap="round"/>
<path d="M75.9763 81.2854L95.8995 72.4061" stroke="#312F2F" stroke-width="2" stroke-miterlimit="10" stroke-linecap="round"/>
<path d="M150.508 119.281C159.059 119.281 165.992 112.347 165.992 103.794C165.992 95.2402 159.059 88.3063 150.508 88.3063C141.956 88.3063 135.023 95.2402 135.023 103.794C135.023 112.347 141.956 119.281 150.508 119.281Z" fill="#312F2F" stroke="#312F2F" stroke-width="2" stroke-miterlimit="10"/>
<path d="M157.424 98.8377C157.114 98.528 156.701 98.528 156.392 98.8377L147.927 107.304L144.623 104C144.314 103.69 143.901 103.69 143.591 104C143.281 104.31 143.281 104.723 143.591 105.033L147.411 108.853C147.72 109.163 148.133 109.163 148.443 108.853L157.424 99.8702C157.63 99.5605 157.63 99.0442 157.424 98.8377Z" fill="white"/>
<path d="M395.16 145.403L391.547 146.229C391.03 145.403 390.824 144.577 390.824 143.751C390.824 139.827 396.089 136.523 403.315 135.491V133.116H406.928V135.181H407.754H408.683V133.116H412.296V135.491C419.418 136.523 424.786 139.827 424.786 143.751C424.786 144.577 424.477 145.506 423.96 146.229L420.347 145.403C420.657 144.887 420.76 144.37 420.76 143.751C420.76 140.963 417.251 138.588 412.296 137.659V142.409H408.683V137.246H407.754H406.928V142.409H403.315V137.659C398.36 138.588 394.85 140.963 394.85 143.751C394.747 144.37 394.953 144.887 395.16 145.403Z" fill="white"/>
<path d="M395.16 138.692L391.547 139.518C391.03 138.692 390.824 137.866 390.824 137.04C390.824 133.116 396.089 129.812 403.315 128.78V126.405H406.928V128.47H407.754H408.683V126.405H412.296V128.78C419.418 129.812 424.786 133.116 424.786 137.04C424.786 137.866 424.477 138.795 423.96 139.518L420.347 138.692C420.657 138.175 420.76 137.659 420.76 137.04C420.76 134.252 417.251 131.877 412.296 130.948V135.697H408.683V130.535H407.754H406.928V135.697H403.315V130.948C398.36 131.877 394.85 134.252 394.85 137.04C394.747 137.556 394.953 138.175 395.16 138.692Z" fill="white"/>
<path d="M395.16 130.845L391.547 131.671C391.03 130.845 390.824 130.019 390.824 129.193C390.824 125.269 396.089 121.965 403.315 120.933V118.558H406.928V120.623H407.754H408.683V118.558H412.296V120.933C419.418 121.965 424.786 125.269 424.786 129.193C424.786 130.019 424.477 130.948 423.96 131.671L420.347 130.845C420.657 130.329 420.76 129.812 420.76 129.193C420.76 126.405 417.251 124.03 412.296 123.101V127.851H408.683V122.688H407.754H406.928V127.851H403.315V123.101C398.36 124.03 394.85 126.405 394.85 129.193C394.747 129.812 394.953 130.329 395.16 130.845Z" fill="white"/>
<path d="M395.16 123.411L391.547 124.237C391.03 123.411 390.824 122.585 390.824 121.759C390.824 117.835 396.089 114.531 403.315 113.499V111.124H406.928V113.189H407.754H408.683V111.124H412.296V113.499C419.418 114.531 424.786 117.835 424.786 121.759C424.786 122.585 424.477 123.514 423.96 124.237L420.347 123.411C420.657 122.895 420.76 122.378 420.76 121.759C420.76 118.971 417.251 116.596 412.296 115.667V120.417H408.683V115.254H407.754H406.928V120.417H403.315V115.667C398.36 116.596 394.85 118.971 394.85 121.759C394.747 122.378 394.953 122.895 395.16 123.411Z" fill="white"/>
<path d="M407.857 222.633C405.792 222.633 403.831 220.155 401.869 220.052C399.805 219.948 397.534 222.013 395.573 221.807C393.508 221.497 391.96 218.813 389.998 218.4C387.934 217.987 385.456 219.742 383.598 219.122C381.637 218.503 380.501 215.612 378.746 214.786C376.785 213.96 373.895 215.096 372.346 214.063C370.488 212.927 370.385 209.83 369.043 208.591C367.494 207.146 364.397 206.939 363.468 205.287C362.539 203.429 364.191 200.951 364.191 198.989C364.191 197.027 362.436 194.446 363.468 192.691C364.294 191.039 367.494 190.832 369.043 189.387C370.385 188.045 370.591 185.05 372.449 183.915C374.101 182.882 376.991 184.018 378.849 183.192C380.604 182.366 381.637 179.475 383.701 178.855C385.559 178.236 388.14 179.991 390.101 179.578C391.96 179.165 393.611 176.481 395.573 176.171C397.534 175.861 399.805 178.029 401.869 177.926C403.831 177.823 405.792 175.345 407.857 175.345C409.921 175.345 411.883 177.823 413.844 177.926C415.909 178.029 418.18 175.964 420.141 176.171C422.206 176.481 423.754 179.165 425.715 179.578C427.78 179.991 430.257 178.236 432.116 178.855C434.077 179.475 435.212 182.366 436.967 183.192C438.929 184.018 441.819 182.882 443.367 183.915C445.226 185.05 445.329 188.148 446.671 189.387C448.219 190.832 451.316 191.039 452.245 192.691C453.174 194.549 451.523 197.027 451.523 198.989C451.523 200.951 453.277 203.429 452.245 205.287C451.419 206.939 448.219 207.146 446.671 208.591C445.329 209.933 445.122 212.927 443.264 214.063C441.613 215.096 438.722 213.96 436.864 214.786C435.109 215.612 434.077 218.503 432.012 219.122C430.154 219.742 427.573 217.987 425.612 218.4C423.651 218.813 422.102 221.497 420.141 221.807C418.18 222.117 415.909 219.948 413.844 220.052C411.779 220.258 409.818 222.633 407.857 222.633Z" fill="#8A8A8A"/>
<path d="M452.452 107.098H363.159V204.358H452.452V107.098Z" fill="#8A8A8A"/>
<path d="M407.857 136.11C405.792 136.11 403.831 133.736 401.869 133.529C399.805 133.426 397.534 135.491 395.573 135.284C393.508 134.975 391.96 132.29 389.998 131.877C387.934 131.464 385.456 133.219 383.598 132.6C381.637 131.981 380.501 129.09 378.746 128.264C376.785 127.438 373.895 128.573 372.346 127.541C370.488 126.405 370.385 123.308 369.043 122.069C367.494 120.623 364.397 120.417 363.468 118.765C362.539 116.906 364.191 114.428 364.191 112.467C364.191 110.505 362.436 107.924 363.468 106.168C364.294 104.516 367.494 104.31 369.043 102.864C370.385 101.522 370.591 98.5279 372.449 97.3922C374.101 96.3597 376.991 97.4955 378.849 96.6695C380.604 95.8435 381.637 92.9525 383.701 92.333C385.559 91.7135 388.14 93.4688 390.101 93.0558C391.96 92.6428 393.611 89.9583 395.573 89.6486C397.534 89.3388 399.805 91.507 401.869 91.4038C403.831 91.3005 405.792 88.8226 407.857 88.8226C409.921 88.8226 411.883 91.3005 413.844 91.4038C415.909 91.507 418.18 89.4421 420.141 89.6486C422.206 89.9583 423.754 92.6428 425.715 93.0558C427.78 93.4688 430.257 91.7135 432.116 92.333C434.077 92.9525 435.212 95.8435 436.967 96.6695C438.929 97.4955 441.819 96.3597 443.367 97.3922C445.226 98.5279 445.329 101.625 446.671 102.864C448.219 104.31 451.316 104.516 452.245 106.168C453.174 108.027 451.523 110.505 451.523 112.467C451.523 114.428 453.277 116.906 452.245 118.765C451.419 120.417 448.219 120.623 446.671 122.069C445.329 123.411 445.122 126.405 443.264 127.541C441.613 128.573 438.722 127.438 436.864 128.264C435.109 129.09 434.077 131.981 432.012 132.6C430.154 133.219 427.573 131.464 425.612 131.877C423.651 132.29 422.102 134.975 420.141 135.284C418.18 135.594 415.909 133.426 413.844 133.529C411.779 133.632 409.818 136.11 407.857 136.11Z" fill="#0DB3AC" class="custom-color"/>
<path d="M395.16 115.461L391.547 116.287C391.03 115.461 390.824 114.635 390.824 113.809C390.824 109.885 396.089 106.581 403.315 105.549V103.174H406.928V105.239H407.754H408.683V103.174H412.296V105.549C419.418 106.581 424.786 109.885 424.786 113.809C424.786 114.635 424.477 115.564 423.96 116.287L420.347 115.461C420.657 114.944 420.76 114.428 420.76 113.809C420.76 111.021 417.251 108.646 412.296 107.717V112.467H408.683V107.304H407.754H406.928V112.467H403.315V107.717C398.36 108.646 394.85 111.021 394.85 113.809C394.747 114.428 394.953 114.944 395.16 115.461Z" fill="white"/>
<path d="M418.901 43.9541L343.02 91.0383L353.034 107.183L428.915 60.0983L418.901 43.9541Z" fill="#8A8A8A"/>
<path d="M400.631 99.2507C398.876 100.283 395.985 99.2507 394.231 100.18C392.372 101.109 391.65 104.103 389.792 104.929C387.934 105.755 385.146 104.31 383.288 104.929C381.327 105.652 380.088 108.44 378.23 108.956C376.166 109.472 373.791 107.511 371.83 107.82C369.765 108.13 367.907 110.608 365.946 110.608C363.778 110.608 362.023 108.027 360.165 107.717C358.101 107.304 355.313 108.75 353.662 107.82C351.907 106.788 352.01 103.794 350.978 102.038C349.945 100.386 347.158 99.1474 347.055 97.0825C346.952 95.224 349.429 93.3655 350.049 91.3005C350.565 89.4421 349.016 86.7576 350.049 84.8991C350.875 83.1439 353.971 82.6277 355.107 80.8724C356.242 79.3237 355.52 76.2263 356.965 74.6775C358.204 73.232 361.301 73.3353 362.849 71.8898C364.294 70.5476 364.191 67.4501 365.739 66.1079C367.288 64.8689 370.281 65.4884 371.933 64.2494C373.585 63.1137 373.894 60.0162 375.649 58.8805C377.404 57.848 380.295 58.8805 382.05 57.9512C383.908 57.022 384.63 54.0278 386.488 53.2018C388.347 52.3758 391.134 53.8213 392.992 53.2018C394.953 52.4791 396.192 49.6914 398.05 49.1751C400.115 48.6589 402.489 50.6206 404.45 50.3108C406.515 50.0011 408.373 47.5231 410.334 47.5231C412.502 47.5231 414.257 50.1043 416.115 50.4141C418.283 50.8271 420.967 49.3816 422.618 50.3108C424.373 51.3433 424.27 54.3375 425.302 56.0928C426.335 57.7447 429.122 58.9837 429.225 61.0487C429.328 62.9072 426.851 64.6624 426.231 66.8306C425.715 68.6891 427.264 71.3736 426.231 73.232C425.406 74.9873 422.309 75.5035 421.173 77.2587C420.038 78.8075 420.76 81.9049 419.315 83.4537C418.076 84.8991 414.98 84.7959 413.431 86.2414C411.986 87.5836 412.089 90.6811 410.541 92.0233C408.992 93.2623 405.999 92.6428 404.347 93.8818C402.695 95.1208 402.386 98.2182 400.631 99.2507Z" fill="#8A8A8A"/>
<path d="M396.192 92.1266C394.437 93.159 391.547 92.1266 389.792 93.0558C387.934 93.985 387.211 96.9792 385.353 97.8052C383.495 98.6312 380.708 97.1857 378.849 97.8052C376.888 98.528 375.649 101.316 373.791 101.832C371.727 102.348 369.352 100.386 367.391 100.696C365.327 101.006 363.468 103.484 361.507 103.484C359.339 103.484 357.584 101.006 355.726 100.593C353.662 100.18 350.874 101.625 349.223 100.696C347.468 99.6637 347.571 96.6695 346.539 94.9143C345.507 93.2623 342.719 92.0233 342.616 89.9583C342.513 88.0999 344.99 86.3446 345.61 84.1764C346.126 82.3179 344.578 79.6335 345.61 77.775C346.436 76.0198 349.533 75.5035 350.668 73.7483C351.804 72.1996 351.081 69.1021 352.526 67.5534C353.765 66.1079 356.862 66.2111 358.41 64.7657C359.855 63.4234 359.752 60.326 361.301 58.9837C362.849 57.7448 365.843 58.3643 367.494 57.1253C369.146 55.9895 369.456 52.8921 371.211 51.7563C372.965 50.7239 375.856 51.7563 377.611 50.8271C379.469 49.8979 380.191 46.9037 382.05 46.0777C383.908 45.2517 386.695 46.6972 388.553 46.0777C390.514 45.3549 391.753 42.5672 393.611 42.051C395.676 41.5347 398.05 43.4964 400.011 43.1867C402.076 42.877 403.934 40.399 405.895 40.399C408.063 40.399 409.818 42.9802 411.676 43.2899C413.741 43.7029 416.528 42.2575 418.18 43.1867C419.935 44.2192 419.831 47.2134 420.864 48.9686C421.896 50.6206 424.683 51.8596 424.786 53.9246C424.89 55.783 422.412 57.5383 421.793 59.7065C421.277 61.565 422.825 64.2494 421.793 66.1079C420.967 67.8631 417.87 68.3794 416.734 70.1346C415.599 71.6833 416.322 74.7808 414.876 76.3295C413.638 77.775 410.541 77.6717 408.992 79.1172C407.547 80.4595 407.65 83.5569 406.102 84.8992C404.553 86.1381 401.56 85.5186 399.908 86.7576C398.256 87.9966 397.947 91.0941 396.192 92.1266Z" fill="#0DB3AC" class="custom-color"/>
<path d="M374.617 81.2854L371.933 83.9699C371.107 83.5569 370.488 82.9374 369.972 82.2147C367.907 78.9107 370.591 73.3353 376.166 68.6891L374.927 66.6241L378.024 64.6624L379.159 66.4176L379.882 66.0046L380.708 65.4884L379.572 63.7332L382.669 61.7714L383.908 63.8364C390.514 60.9454 396.811 60.9454 398.876 64.2494C399.289 64.9721 399.598 65.9014 399.598 66.8306L395.985 67.9663C395.985 67.3469 395.779 66.8306 395.469 66.3144C394.024 63.9397 389.792 63.7332 385.043 65.5916L387.624 69.7216L384.527 71.6833L381.74 67.2436L380.914 67.7599L380.191 68.2761L382.979 72.6125L379.882 74.5743L377.301 70.4443C373.585 73.8515 371.83 77.775 373.275 80.1497C373.688 80.5627 374.101 80.9757 374.617 81.2854Z" fill="white"/>
<path d="M172.908 61.0487C172.908 61.0487 174.147 59.087 176.624 56.0928" stroke="#8A8A8A" stroke-width="2" stroke-miterlimit="10" stroke-linecap="round"/>
<path d="M185.089 47.3166C198.096 35.3398 221.632 19.8525 256.627 19.8525C296.163 19.8525 324.345 37.6112 337.868 48.4523" stroke="#8A8A8A" stroke-width="2" stroke-miterlimit="10" stroke-linecap="round" stroke-dasharray="11.93 11.93"/>
<path d="M342.616 52.3758C345.507 55.0603 347.055 56.7122 347.055 56.7122" stroke="#8A8A8A" stroke-width="2" stroke-miterlimit="10" stroke-linecap="round"/>
<path d="M347.055 49.5881L348.81 58.3643H340.139" stroke="#8A8A8A" stroke-width="2" stroke-miterlimit="10" stroke-linecap="round" stroke-linejoin="round"/>
<path d="M285.181 0.486343L277.987 4.94983L299.103 38.9932L306.297 34.5297L285.181 0.486343Z" fill="#8A8A8A"/>
<path d="M302.77 13.1414C303.286 13.9673 302.77 15.2063 303.183 16.0323C303.596 16.8583 304.938 17.168 305.351 17.994C305.764 18.82 305.041 20.059 305.351 20.885C305.66 21.8142 306.899 22.3305 307.106 23.1565C307.312 24.0857 306.486 25.1182 306.589 26.0474C306.693 26.9767 307.828 27.8027 307.828 28.6286C307.828 29.5579 306.693 30.3839 306.486 31.2099C306.28 32.1391 307.002 33.3781 306.486 34.1008C305.97 34.9268 304.628 34.8236 303.905 35.3398C303.183 35.8561 302.563 37.095 301.634 37.095C300.809 37.1983 299.983 36.0625 299.054 35.7528C298.228 35.5463 296.989 36.1658 296.163 35.7528C295.441 35.3398 295.131 33.9976 294.408 33.4813C293.686 32.9651 292.344 33.2748 291.621 32.6553C291.002 32.0359 291.002 30.6936 290.382 30.0741C289.763 29.4546 288.421 29.4546 287.802 28.7319C287.286 28.0092 287.492 26.6669 286.976 25.9442C286.46 25.2214 285.118 25.0149 284.602 24.2922C284.086 23.4662 284.602 22.2272 284.189 21.4012C283.776 20.5753 282.434 20.2655 282.021 19.4395C281.608 18.6135 282.331 17.3745 282.021 16.5486C281.711 15.6193 280.472 15.1031 280.266 14.2771C280.06 13.3478 280.885 12.3154 280.782 11.3861C280.679 10.4569 279.543 9.6309 279.543 8.80491C279.543 7.87567 280.679 7.04968 280.885 6.22369C281.092 5.29446 280.369 4.05547 280.885 3.33273C281.402 2.50674 282.744 2.60999 283.466 2.09375C284.189 1.5775 284.808 0.33852 285.737 0.33852C286.563 0.235271 287.389 1.37101 288.318 1.68075C289.144 1.88725 290.382 1.26776 291.208 1.68075C291.931 2.09375 292.241 3.43598 292.963 3.95222C293.686 4.46847 295.028 4.15872 295.75 4.77821C296.37 5.3977 296.37 6.73994 296.989 7.35943C297.608 7.97892 298.95 7.97892 299.57 8.70166C300.189 9.4244 299.879 10.7666 300.396 11.4894C300.912 12.2121 302.254 12.4186 302.77 13.1414Z" fill="#8A8A8A"/>
<path d="M299.57 15.1031C300.086 15.9291 299.57 17.1681 299.983 17.994C300.396 18.82 301.738 19.1298 302.151 19.9558C302.563 20.7818 301.841 22.0207 302.151 22.8467C302.46 23.776 303.699 24.2922 303.905 25.1182C304.112 26.0474 303.286 27.0799 303.389 28.0092C303.492 28.9384 304.628 29.7644 304.628 30.5904C304.628 31.5196 303.492 32.3456 303.286 33.1716C303.08 34.1008 303.802 35.3398 303.286 36.0626C302.77 36.8885 301.428 36.7853 300.705 37.3015C299.983 37.8178 299.363 39.0568 298.434 39.0568C297.608 39.16 296.783 38.0243 295.854 37.7145C295.028 37.508 293.789 38.1275 292.963 37.7145C292.241 37.3015 291.931 35.9593 291.208 35.4431C290.486 34.9268 289.144 35.2366 288.421 34.6171C287.802 33.9976 287.802 32.6553 287.182 32.0359C286.563 31.4164 285.221 31.4164 284.602 30.6936C284.086 29.9709 284.292 28.6287 283.776 27.9059C283.26 27.1832 281.918 26.9767 281.402 26.2539C280.885 25.4279 281.402 24.189 280.989 23.363C280.576 22.537 279.234 22.2272 278.821 21.4012C278.408 20.5753 279.131 19.3363 278.821 18.5103C278.511 17.581 277.272 17.0648 277.066 16.2388C276.859 15.3096 277.685 14.2771 277.582 13.3479C277.479 12.4186 276.343 11.5926 276.343 10.7666C276.343 9.8374 277.479 9.01141 277.685 8.18542C277.892 7.25619 277.169 6.0172 277.685 5.29446C278.201 4.46847 279.543 4.57172 280.266 4.05548C280.989 3.53923 281.608 2.30025 282.537 2.30025C283.363 2.197 284.189 3.33274 285.118 3.64248C285.944 3.84898 287.182 3.22949 288.008 3.64248C288.731 4.05548 289.04 5.39771 289.763 5.91395C290.486 6.4302 291.828 6.12045 292.55 6.73994C293.17 7.35943 293.17 8.70167 293.789 9.32116C294.408 9.94065 295.75 9.94065 296.37 10.6634C296.886 11.3861 296.679 12.7284 297.196 13.4511C297.712 14.1738 299.157 14.3803 299.57 15.1031Z" fill="#0DB3AC" class="custom-color"/>
<path d="M294.718 24.8084L295.957 26.0474C295.75 26.4604 295.544 26.6669 295.131 26.8734C293.686 27.8026 291.105 26.5637 289.04 24.0857L288.111 24.6019L287.286 23.1564L288.111 22.6402L287.905 22.3305L287.699 22.0207L286.873 22.537L286.047 21.0915L286.976 20.5752C285.634 17.581 285.634 14.7933 287.182 13.8641C287.492 13.6576 287.905 13.5543 288.318 13.5543L288.834 15.1031C288.524 15.1031 288.318 15.2063 288.111 15.3095C287.079 15.929 286.976 17.8908 287.802 19.9557L289.66 18.82L290.486 20.2655L288.524 21.5045L288.731 21.8142L288.937 22.124L290.899 20.885L291.724 22.3305L289.866 23.4662C291.415 25.1182 293.17 25.9442 294.202 25.2214C294.408 25.2214 294.615 25.0149 294.718 24.8084Z" fill="white"/>
</g>
<defs>
<clipPath id="clip0">
<rect y="0.338501" width="454" height="321" fill="white"/>
</clipPath>
</defs>
</svg>
