<svg width="7" height="15" viewBox="0 0 7 15" fill="none" xmlns="http://www.w3.org/2000/svg">
<path d="M4.91087 0.458862C4.18181 0.458862 3.59075 1.04992 3.59075 1.77898C3.59075 2.50804 4.18181 3.0991 4.91087 3.0991C5.63993 3.0991 6.23099 2.50804 6.23099 1.77898C6.23099 1.04992 5.63993 0.458862 4.91087 0.458862ZM4.59114 4.6564C3.54261 4.74626 0.682358 7.02338 0.682358 7.02338C0.525009 7.15486 0.560037 7.145 0.702988 7.39125C0.843695 7.63354 0.825134 7.64779 0.996917 7.53391C1.16871 7.41994 1.46123 7.23979 1.94746 6.93229C3.80936 5.73811 2.24071 8.50702 1.44556 13.1547C1.12949 15.4658 3.20096 14.2741 3.73684 13.9265C4.27272 13.5789 5.68287 12.6051 5.82536 12.5066C6.01986 12.3722 5.87922 12.2662 5.72908 12.0512C5.62435 11.9011 5.51592 12.0013 5.51592 12.0013C4.9481 12.3866 3.89693 13.1784 3.754 12.6752C3.61108 12.1718 4.66726 8.7317 5.25639 6.36332C5.36508 5.80508 5.61212 4.56892 4.59114 4.6564Z" fill="#828282"/>
</svg>
