<svg width="177" height="196" viewBox="0 0 177 196" fill="none" xmlns="http://www.w3.org/2000/svg">
<path opacity="0.2" d="M176.348 150.36C176.025 140.16 170.785 129.864 161.596 121.371C152.266 112.807 140.532 107.321 127.981 105.654C124.972 105.263 121.94 105.062 118.906 105.053C109.044 111.279 97.5149 114.335 85.8667 113.811C82.4298 115.881 79.2445 118.343 76.3748 121.148C71.0932 126.336 63.5887 129.557 55.2314 130.267H55.1515C53.78 130.206 52.429 130.617 51.3237 131.432L46.1807 131.562C46.6387 130.507 46.0672 129.296 44.7857 128.749C43.3949 128.157 41.6973 128.577 41.004 129.687C40.9326 129.796 40.8696 129.914 40.8023 130.028C41.024 130.696 40.9896 131.423 40.7057 132.067C40.4029 132.768 39.8369 133.322 39.1295 133.61C38.4222 133.898 37.6302 133.896 36.9241 133.606C35.9805 133.201 35.059 132.746 34.1635 132.243L32.0962 133.778C32.3735 133.912 32.6466 134.034 32.9366 134.148C33.2798 134.294 33.5904 134.506 33.8503 134.774C34.1102 135.041 34.314 135.358 34.4498 135.706C34.5857 136.053 34.6507 136.424 34.6413 136.797C34.6318 137.17 34.5479 137.537 34.3946 137.877C34.0926 138.579 33.5267 139.135 32.819 139.422C32.1114 139.71 31.3189 139.708 30.613 139.416C29.3659 138.881 28.1559 138.263 26.991 137.566L24.2472 139.605C24.539 140.04 24.6941 140.553 24.6926 141.077C24.6891 141.587 24.5454 142.086 24.2771 142.52C24.0088 142.954 23.6263 143.306 23.1716 143.537L21.5623 144.377C18.6062 145.904 15.2334 146.425 11.9549 145.861C8.67643 145.298 5.67088 143.68 3.39365 141.254L2.77178 140.577C2.70695 140.951 2.66346 141.328 2.64153 141.708L2.3516 146.829C2.04907 152.265 6.2971 157.361 12.6881 159.219L14.3688 159.707C14.8335 159.848 15.3246 159.879 15.8032 159.796C16.2817 159.714 16.7344 159.52 17.1252 159.232C17.4774 158.96 17.7313 158.581 17.8479 158.151L21.1505 158.631C21.4707 159.71 21.8739 160.763 22.3564 161.78C22.9321 162.965 24.5708 163.571 26.0204 163.138C27.47 162.705 28.1759 161.393 27.6045 160.195C27.4994 159.976 27.3986 159.745 27.2977 159.509L29.7894 159.871C30.0591 160.679 30.379 161.47 30.7474 162.238C31.3189 163.424 32.9576 164.029 34.4072 163.596C35.8568 163.163 36.5081 161.914 36.0417 160.779L38.4619 161.128C38.672 161.683 38.8821 162.213 39.1384 162.709C39.7099 163.895 41.3486 164.5 42.7982 164.067C43.8907 163.739 44.563 162.911 44.584 162.015L50.622 162.907C51.4046 163.374 52.2847 163.655 53.1935 163.726L53.6137 163.794C61.7273 165.383 68.862 169.461 73.7109 175.28C83.7952 187.381 99.7621 194.894 117.582 195.882C133.129 196.757 148.394 192.329 159.499 183.74C170.794 175.036 176.752 163.188 176.348 150.36Z" fill="#312F2F"/>
<g opacity="0.5">
<path d="M125.338 16.1578C106.628 -0.0840978 75.2235 -0.441478 56.1809 15.4136C49.0324 21.3204 43.5402 28.9843 40.2425 37.6543C36.9448 46.3243 35.9548 55.7028 37.3695 64.8708C38.7429 73.8872 36.558 83.0846 31.2768 90.5181C31.2768 90.5181 31.0962 90.7326 31.0457 90.783C28.6675 93.1417 32.4575 100.811 39.5166 107.857C46.5756 114.904 54.2229 118.713 56.5969 116.329C56.6474 116.279 57.1558 115.909 57.1558 115.909C64.6168 110.671 73.799 108.491 82.8162 109.817C94.2755 111.439 105.952 109.305 116.098 103.733C126.244 98.1616 134.314 89.4524 139.101 78.9087C143.888 68.3649 145.134 56.5536 142.654 45.242C140.173 33.9304 134.098 23.7267 125.338 16.1578V16.1578Z" stroke="#312F2F" stroke-width="6" stroke-linecap="round" stroke-linejoin="round"/>
<path d="M127.902 76.6181C131.977 68.087 133.136 58.4519 131.2 49.1968C129.265 39.9417 124.343 31.5799 117.191 25.3992" stroke="#312F2F" stroke-width="3" stroke-linecap="round" stroke-linejoin="round"/>
<path d="M119.494 88.4916C120.673 87.3123 121.783 86.0657 122.817 84.758" stroke="#312F2F" stroke-width="3" stroke-linecap="round" stroke-linejoin="round"/>
<path d="M49.248 125.483C44.7226 123.755 38.8569 119.701 33.2811 114.13C27.7053 108.56 23.6464 102.677 21.9362 98.1534" stroke="#312F2F" stroke-width="6" stroke-linecap="round" stroke-linejoin="round"/>
<path d="M43.3066 131.428C38.7813 129.7 32.9155 125.647 27.3397 120.076C21.7639 114.505 17.705 108.623 15.9949 104.099" stroke="#312F2F" stroke-width="6" stroke-linecap="round" stroke-linejoin="round"/>
<path d="M37.3653 137.373C32.8357 135.645 26.9742 131.592 21.3984 126.021C15.8226 120.45 11.7636 114.568 10.0535 110.044" stroke="#312F2F" stroke-width="6" stroke-linecap="round" stroke-linejoin="round"/>
<path d="M41.2981 106.382C41.2981 106.382 100.72 62.3818 87.0516 48.7088C74.8664 36.5159 64.177 58.5179 73.6815 68.0494C83.186 77.581 97.4511 74.5874 97.4511 74.5874" stroke="#312F2F" stroke-width="3" stroke-linecap="round" stroke-linejoin="round"/>
<path d="M14.8562 132.546C10.5955 128.283 7.39377 123.78 5.64582 119.933L4.87689 121.312C3.55867 123.689 3.05064 126.432 3.42973 129.125C3.80881 131.817 5.05438 134.313 6.97779 136.233L11.4695 140.728C13.3887 142.652 15.8819 143.897 18.5718 144.277C21.2616 144.656 24.0018 144.148 26.3775 142.83L27.9322 141.968C23.9783 140.27 19.2849 136.978 14.8562 132.546Z" stroke="#312F2F" stroke-width="6" stroke-linecap="round" stroke-linejoin="round"/>
</g>
</svg>
