<?xml version="1.0" encoding="utf-8"?>
<svg width="200" height="41" fill="none" xmlns="http://www.w3.org/2000/svg">
  <path fill-rule="evenodd" clip-rule="evenodd" d="M10.823 20.816c0 5.703 4.659 10.326 10.406 10.326 5.748 0 10.407-4.623 10.407-10.326 0-5.702-4.66-10.325-10.407-10.325v5.163c2.87 0 5.204 2.316 5.204 5.162 0 2.847-2.335 5.163-5.204 5.163-2.869 0-5.203-2.316-5.203-5.163V.82a20.787 20.787 0 0 0-5.203 2.124v17.872z" fill="#FF6308"/>
  <path fill-rule="evenodd" clip-rule="evenodd" d="M20.813 0v5.122c8.607 0 15.61 6.893 15.61 15.366 0 8.473-7.003 15.366-15.61 15.366S5.203 28.96 5.203 20.488H0c0 11.315 9.318 20.488 20.813 20.488s20.813-9.173 20.813-20.488S32.308 0 20.813 0z" fill="#FF6308"/>
  <path fill-rule="evenodd" clip-rule="evenodd" d="M60.201 37.398c-2.906 0-5.562-.443-8.169-1.43V1.301h2.707v14.942c1.704-1.726 4.26-2.712 6.715-2.712 6.165 0 10.124 4.438 10.124 11.588 0 7.595-4.46 12.28-11.377 12.28zm.1-2.367c5.163 0 8.52-3.747 8.52-9.714 0-5.82-3.007-9.37-7.768-9.37-2.505 0-4.51.789-6.314 2.663v15.534a17.51 17.51 0 0 0 5.563.887zm26.629 2.367c-7.367 0-11.427-4.537-11.427-11.983 0-7.101 4.16-11.884 10.525-11.884 6.214 0 10.023 3.994 10.023 10.947v1.43H78.31c0 5.622 3.107 9.074 8.82 9.074 2.907 0 5.664-.937 8.37-2.959v2.663c-2.807 1.825-5.663 2.712-8.57 2.712zM86.028 15.8c-4.31 0-7.367 3.205-7.668 7.94h14.935c0-4.932-2.707-7.94-7.267-7.94zm14.3 21.106V1.498h5.462v35.407h-5.462zm21.015.493c-7.467 0-11.827-4.586-11.827-12.082 0-7.2 4.209-11.983 10.925-11.983 6.415 0 10.324 4.143 10.324 12.18v1.579h-15.686c.1 3.55 2.656 5.77 7.016 5.77 2.556 0 5.312-.839 8.018-2.466v4.931c-2.906 1.381-5.863 2.071-8.77 2.071zm-.902-19.676c-3.157 0-5.162 2.17-5.362 5.375h10.223c0-3.304-1.804-5.375-4.861-5.375zm14.049 19.183V13.826h5.463v3.107c1.704-2.367 4.109-3.6 6.866-3.6 4.961 0 7.918 3.156 7.918 8.63v14.942h-5.463V22.95c0-3.156-1.503-4.734-4.159-4.734-2.105 0-3.859 1.085-5.162 2.96v15.73h-5.463zm33.945.493c-6.013 0-10.073-4.389-10.073-11.687 0-7.693 4.511-12.378 11.076-12.378 1.804 0 3.859.493 5.312 1.332V1.498h5.413v35.407h-4.962l-.451-3.107c-1.303 2.22-3.759 3.6-6.315 3.6zm1.253-4.734c2.055 0 3.859-1.134 5.062-2.86V19.448a7.666 7.666 0 0 0-4.46-1.48c-3.959 0-6.465 2.96-6.465 7.497 0 4.34 2.255 7.2 5.863 7.2z" fill="#312F2F"/>
  <path fill-rule="evenodd" clip-rule="evenodd" d="M187.642 37.073v-1.801h1.849v1.801h-1.849zm3.805 0v-6.115h-1.103v-1.62h1.103V28.33c0-2.017 1.204-3.29 3.12-3.29a5 5 0 0 1 1.781.331v1.752c-.424-.264-1.051-.43-1.577-.43-.95 0-1.476.579-1.476 1.587v1.058h1.357v1.62h-1.357v6.115h-1.848zm4.144 0v-7.735h1.848v1.14c.39-.859 1.069-1.305 1.798-1.305.271 0 .526.033.763.099v1.967a3.392 3.392 0 0 0-1.085-.182c-.628 0-1.171.297-1.476.71v5.306h-1.848z" fill="#F12525"/>
</svg>
