<?xml version="1.0" encoding="utf-8"?>
<svg width="310" height="64" viewBox="0 0 310 64" fill="none" xmlns="http://www.w3.org/2000/svg">
<path fill-rule="evenodd" clip-rule="evenodd" d="M16.7753 32.8835C16.7753 41.675 23.9967 48.8015 32.9054 48.8015C41.814 48.8015 49.0355 41.675 49.0355 32.8835C49.0355 24.092 41.814 16.9656 32.9054 16.9656V24.9245C37.3524 24.9245 40.9704 28.4949 40.9704 32.8835C40.9704 37.2721 37.3524 40.8425 32.9054 40.8425C28.4583 40.8425 24.8403 37.2721 24.8403 32.8835V19.1121V2.05518C21.9781 2.78502 19.2738 3.90087 16.7753 5.3303V32.8835Z" fill="white"/>
<path fill-rule="evenodd" clip-rule="evenodd" d="M32.2602 0.791748V8.68809C45.6014 8.68809 56.4553 19.315 56.4553 32.3771C56.4553 45.4392 45.6014 56.0661 32.2602 56.0661C18.919 56.0661 8.06504 45.4392 8.06504 32.3771H0C0 49.8209 14.4429 63.9625 32.2602 63.9625C50.0775 63.9625 64.5203 49.8209 64.5203 32.3771C64.5203 14.9333 50.0775 0.791748 32.2602 0.791748Z" fill="white"/>
<path fill-rule="evenodd" clip-rule="evenodd" d="M93.3122 58.4475C88.8068 58.4475 84.6898 57.7633 80.6504 56.2428V2.79712H84.8451V25.8327C87.4862 23.1719 91.4479 21.6514 95.2542 21.6514C104.809 21.6514 110.946 28.4936 110.946 39.5173C110.946 51.2251 104.032 58.4475 93.3122 58.4475ZM93.4676 54.7983C101.469 54.7983 106.673 49.0204 106.673 39.8214C106.673 30.8504 102.012 25.3766 94.6328 25.3766C90.7488 25.3766 87.6416 26.593 84.8451 29.482V53.4299C87.6416 54.3422 90.4381 54.7983 93.4676 54.7983ZM134.741 58.4475C123.323 58.4475 117.03 51.4532 117.03 39.9734C117.03 29.0258 123.478 21.6514 133.343 21.6514C142.976 21.6514 148.879 27.8094 148.879 38.5289V40.7337H121.381C121.381 49.4005 126.197 54.7223 135.052 54.7223C139.558 54.7223 143.83 53.2778 148.025 50.1608V54.2661C143.675 57.0791 139.247 58.4475 134.741 58.4475ZM133.343 25.1485C126.663 25.1485 121.924 30.0902 121.458 37.3886H144.607C144.607 29.786 140.412 25.1485 133.343 25.1485ZM155.508 57.6873V3.10123H163.975V57.6873H155.508ZM188.082 58.4475C176.507 58.4475 169.749 51.3772 169.749 39.8214C169.749 28.7217 176.274 21.3473 186.683 21.3473C196.626 21.3473 202.686 27.7334 202.686 40.1255V42.5583H178.372C178.527 48.0321 182.489 51.4532 189.247 51.4532C193.209 51.4532 197.481 50.1608 201.676 47.652V55.2545C197.17 57.3832 192.587 58.4475 188.082 58.4475ZM186.683 28.1135C181.79 28.1135 178.682 31.4586 178.372 36.4002H194.218C194.218 31.3066 191.422 28.1135 186.683 28.1135ZM208.46 57.6873V22.1075H216.927V26.8971C219.568 23.2479 223.297 21.3473 227.569 21.3473C235.259 21.3473 239.842 26.2129 239.842 34.6517V57.6873H231.375V36.1722C231.375 31.3065 229.045 28.8737 224.928 28.8737C221.665 28.8737 218.947 30.5463 216.927 33.4353V57.6873H208.46ZM261.075 58.4475C251.753 58.4475 245.461 51.6813 245.461 40.4296C245.461 28.5696 252.452 21.3473 262.629 21.3473C265.425 21.3473 268.61 22.1075 270.863 23.3999V3.10123H279.252V57.6873H271.562L270.863 52.8977C268.843 56.3188 265.037 58.4475 261.075 58.4475ZM263.017 51.1491C266.202 51.1491 268.998 49.4005 270.863 46.7396V30.7744C268.921 29.3299 266.357 28.4936 263.949 28.4936C257.812 28.4936 253.928 33.0551 253.928 40.0494C253.928 46.7396 257.424 51.1491 263.017 51.1491Z" fill="white"/>
<path fill-rule="evenodd" clip-rule="evenodd" d="M290.846 57.9461V55.1687H293.711V57.9461H290.846ZM296.743 57.9461V48.5182H295.034V46.021H296.743V44.4667C296.743 41.358 298.609 39.396 301.579 39.396C302.526 39.396 303.472 39.5744 304.34 39.9056V42.6066C303.682 42.1989 302.71 41.9441 301.895 41.9441C300.423 41.9441 299.608 42.8359 299.608 44.3903V46.021H301.711V48.5182H299.608V57.9461H296.743ZM303.165 57.9461V46.021H306.031V47.7792C306.635 46.4542 307.687 45.7662 308.817 45.7662C309.238 45.7662 309.632 45.8172 310 45.9191V48.9514C309.474 48.773 308.896 48.6711 308.318 48.6711C307.345 48.6711 306.504 49.1297 306.031 49.7667V57.9461H303.165Z" fill="white"/>
</svg>
