<svg width="129" height="153" viewBox="0 0 129 153" fill="none" xmlns="http://www.w3.org/2000/svg">
<path class="custom-color" opacity="0.15" d="M16.9432 75.376C6.24037 25.2635 21.9943 12.0793 48.7454 4.13761C127.353 -19.1991 132.266 86.4303 127.353 120.821C122.44 155.212 30.3217 138.017 16.9432 75.376Z" fill="#0DB3AC"/>
<path d="M45.0373 55.9897H6.04803V124.031H45.0373V55.9897Z" fill="white"/>
<path d="M45.9122 124.907H5.17285V55.1136H45.9122V124.907ZM6.92291 123.155H44.1622V56.866H6.92291V123.155Z" fill="#312F2F"/>
<path d="M45.0371 55.9897H6.04785V63.3744H45.0371V55.9897Z" fill="#312F2F"/>
<path d="M45.0371 113.864H6.04785V124.031H45.0371V113.864Z" fill="#312F2F"/>
<path d="M2.30771 74.2308C0.664621 76.1267 1.50837 79.0437 4.618 81.5587C7.42181 83.8262 12.0124 86.9997 13.6899 85.4487C15.8962 83.4089 12.875 79.7454 10.3938 77.4141C6.0478 73.3307 3.42293 72.9441 2.30771 74.2308Z" fill="white"/>
<path d="M12.5072 86.7326C10.5911 86.7326 7.76603 85.2308 4.06838 82.2404C2.01118 80.5767 0.789644 78.6586 0.628639 76.8389C0.523198 75.6474 0.875178 74.5469 1.64695 73.6566C2.15009 73.0759 2.85121 72.7467 3.67461 72.7044C5.55658 72.6074 8.01519 73.9776 10.9927 76.7751C12.9766 78.6393 15.3396 81.358 15.3302 83.7245C15.3265 84.6441 14.9647 85.463 14.2837 86.0925C13.8217 86.5195 13.2288 86.7326 12.5072 86.7326ZM2.96868 74.8052C2.50929 75.3353 2.30847 75.9675 2.37191 76.6842C2.48895 78.0065 3.50792 79.5346 5.16785 80.8772C9.63093 84.4864 12.4056 85.443 13.0965 84.8049C13.4246 84.5015 13.5784 84.1561 13.5802 83.7175C13.5854 82.3828 12.2059 80.3182 9.79522 78.0531C6.23517 74.7081 4.38973 74.4225 3.7643 74.4547C3.41801 74.4722 3.15769 74.587 2.96868 74.8052Z" fill="#312F2F"/>
<path d="M8.63352 106.681C5.9579 103.987 3.82414 103.615 2.33878 105.102C0.853421 106.589 1.10762 108.664 4.37541 111.044C7.6432 113.424 9.95765 113.481 10.969 111.793C11.8042 110.399 9.62099 107.676 8.63352 106.681Z" fill="white"/>
<path d="M8.83315 113.836C7.43091 113.836 5.76289 113.138 3.8608 111.753C1.81607 110.264 0.720319 108.756 0.60394 107.271C0.524531 106.257 0.910419 105.293 1.72004 104.483C2.46316 103.738 3.33709 103.361 4.31756 103.361C4.31931 103.361 4.32128 103.361 4.32281 103.361C5.81627 103.363 7.47532 104.272 9.25404 106.063C9.6478 106.46 13.0626 110.002 11.7194 112.243C11.2344 113.053 10.502 113.578 9.60142 113.761C9.35488 113.811 9.09872 113.836 8.83315 113.836ZM4.31756 105.114C3.81092 105.114 3.36597 105.313 2.95733 105.721C2.50844 106.171 2.30937 106.633 2.34853 107.134C2.39972 107.787 2.88208 108.873 4.88983 110.335C7.31432 112.101 8.66339 112.163 9.25207 112.043C9.67033 111.958 9.98643 111.729 10.2183 111.342C10.6016 110.702 9.34744 108.643 8.01259 107.299C6.59417 105.87 5.31728 105.115 4.32019 105.113C4.31931 105.114 4.31844 105.114 4.31756 105.114Z" fill="#312F2F"/>
<path d="M8.63327 86.7017C5.95765 84.0073 3.8239 83.6351 2.33854 85.1225C0.853176 86.6099 1.10737 88.6848 4.37517 91.0649C7.64296 93.4449 9.95741 93.501 10.9687 91.8132C11.8039 90.4191 9.62074 87.696 8.63327 86.7017Z" fill="white"/>
<path d="M8.8329 93.8568C7.43067 93.8568 5.76265 93.1587 3.86055 91.7733C1.81583 90.2842 0.720293 88.7762 0.603696 87.2912C0.524287 86.2776 0.910175 85.3133 1.71979 84.5028C2.46291 83.7589 3.33685 83.3815 4.31732 83.3815C4.31907 83.3815 4.32082 83.3815 4.32257 83.3815C5.81602 83.3837 7.47508 84.2927 9.25379 86.0838C9.64755 86.4803 13.0621 90.0224 11.7192 92.2638C11.2344 93.073 10.502 93.5979 9.60139 93.7814C9.35486 93.8316 9.09869 93.8568 8.8329 93.8568ZM4.31754 85.1339C3.81089 85.1339 3.36594 85.3328 2.9573 85.742C2.50841 86.1915 2.30935 86.6535 2.3485 87.1541C2.39969 87.8077 2.88205 88.8938 4.8898 90.356C7.31451 92.1219 8.66358 92.1841 9.25204 92.064C9.6703 91.9788 9.98641 91.749 10.2183 91.3619C10.6018 90.7221 9.34764 88.6634 8.01256 87.319C6.59414 85.8908 5.31726 85.135 4.31994 85.1335C4.31929 85.1339 4.31841 85.1339 4.31754 85.1339Z" fill="#312F2F"/>
<path d="M9.19006 95.8551C6.51444 93.1607 4.38069 92.7886 2.89533 94.276C1.40996 95.7634 2.41143 98.3079 5.67923 100.688C8.94702 103.068 10.2359 102.376 11.247 100.688C12.0823 99.2939 10.1775 96.8494 9.19006 95.8551Z" fill="white"/>
<path d="M9.0923 103.1C8.01251 103.1 6.74525 102.548 5.16473 101.397C2.84328 99.706 1.49202 97.8451 1.35967 96.1564C1.28442 95.1969 1.60161 94.3325 2.27648 93.6565C3.0196 92.9126 3.89353 92.5352 4.874 92.5352C4.87575 92.5352 4.8775 92.5352 4.87925 92.5352C6.37271 92.5373 8.03198 93.4464 9.81048 95.2374C10.1758 95.6052 13.341 98.8964 11.9974 101.139C11.578 101.839 10.8819 102.797 9.68316 103.042C9.4924 103.081 9.29552 103.1 9.0923 103.1ZM4.87422 94.2876C4.36758 94.2876 3.92263 94.4865 3.51399 94.8957C3.20335 95.2066 3.06947 95.5741 3.10426 96.0193C3.19329 97.1549 4.34833 98.6352 6.19398 99.9792C7.60737 101.009 8.66375 101.461 9.33424 101.325C9.73676 101.242 10.0953 100.907 10.4967 100.237C10.8984 99.5669 9.80348 97.7156 8.56947 96.4732C7.15105 95.0449 5.87416 94.2891 4.87685 94.2876C4.87597 94.2876 4.8751 94.2876 4.87422 94.2876Z" fill="#312F2F"/>
<path d="M24.9008 60.5493H19.2608C18.7776 60.5493 18.3858 60.157 18.3858 59.6731C18.3858 59.1892 18.7776 58.7969 19.2608 58.7969H24.9008C25.3841 58.7969 25.7759 59.1892 25.7759 59.6731C25.7759 60.157 25.3841 60.5493 24.9008 60.5493Z" fill="#E7E6DF"/>
<path d="M33.5632 87.418H17.7103C16.8659 87.418 16.179 86.7302 16.179 85.8846V78.8501C16.179 78.0045 16.8659 77.3167 17.7103 77.3167H33.5632C34.4076 77.3167 35.0945 78.0045 35.0945 78.8501V85.8846C35.0945 86.7302 34.4074 87.418 33.5632 87.418ZM17.9291 85.6656H33.3444V79.0691H17.9291V85.6656Z" fill="#312F2F"/>
<path d="M30.0506 60.5493H28.334C27.8508 60.5493 27.459 60.157 27.459 59.6731C27.459 59.1892 27.8508 58.7969 28.334 58.7969H30.0506C30.5338 58.7969 30.9256 59.1892 30.9256 59.6731C30.9256 60.157 30.5338 60.5493 30.0506 60.5493Z" fill="#E7E6DF"/>
<path d="M58.2517 138.399C58.2517 138.399 53.28 129.839 54.7628 126.433C56.2455 123.027 60.4323 112.894 57.7285 105.383C55.0244 97.8713 52.7568 90.8838 51.8844 85.2065C51.0122 79.5292 48.0174 80.9311 46.9707 85.2111C45.9239 89.491 46.5966 97.5221 46.5966 101.889C46.5966 106.256 44.5575 109.838 42.9002 114.292C41.2429 118.747 41.5394 124.031 41.5394 124.031H14.1879C14.1879 124.031 21.455 131.643 24.4087 133.333C26.8509 134.731 30.3399 140.058 30.1655 143.552L58.2517 138.399Z" fill="white"/>
<path d="M29.2364 144.614L29.2916 143.509C29.451 140.314 26.0909 135.305 23.9747 134.094C20.9455 132.361 13.8558 124.951 13.5557 124.636L12.141 123.154H40.6429C40.6337 121.403 40.7794 117.483 42.0805 113.986C42.4815 112.908 42.9033 111.884 43.3113 110.893C44.6046 107.752 45.7217 105.04 45.7217 101.889C45.7217 100.78 45.6769 99.4033 45.6294 97.9459C45.4892 93.6476 45.3149 88.2982 46.121 85.0027C46.7943 82.2489 48.2401 80.5179 49.7867 80.5819C50.8306 80.6277 52.1919 81.4441 52.7495 85.073C53.6692 91.0592 56.1989 98.5488 58.5516 105.086C60.464 110.398 59.4313 117.901 55.5652 126.783C54.6138 128.968 57.1724 134.797 59.0084 137.959L59.6343 139.036L29.2364 144.614ZM16.265 124.907C18.516 127.186 22.8113 131.41 24.8427 132.572C27.2057 133.924 30.5807 138.643 31.0031 142.508L56.8956 137.757C55.5378 135.211 52.6299 129.14 53.9606 126.083C58.6153 115.389 58.131 109.085 56.9053 105.68C54.5237 99.0638 51.962 91.4734 51.0198 85.3394C50.6455 82.9033 49.9475 82.3429 49.7101 82.3324C49.7064 82.3322 49.7027 82.3322 49.6988 82.3322C49.3006 82.3322 48.3576 83.224 47.8205 85.4191C47.0719 88.4811 47.2417 93.6971 47.3784 97.8883C47.4265 99.3604 47.4718 100.751 47.4718 101.889C47.4718 105.387 46.2367 108.386 44.9292 111.561C44.5269 112.538 44.111 113.548 43.7206 114.597C42.1494 118.82 42.4106 123.93 42.4135 123.982L42.4645 124.906L41.5395 124.907H16.265V124.907Z" fill="#312F2F"/>
<path d="M27.7776 143.418C32.0956 142.64 53.6902 138.704 58.0293 137.009C58.3718 136.875 58.759 137.011 58.9391 137.332C59.5726 138.46 60.928 140.968 61.5311 142.805C61.663 143.207 61.4379 143.637 61.031 143.75C56.8278 144.919 35.2151 150.888 30.2804 151.458C29.9559 151.495 29.6479 151.313 29.5217 151.012C29.0304 149.837 27.7935 146.773 27.195 144.32C27.0937 143.906 27.3586 143.493 27.7776 143.418Z" fill="#AEAEAE"/>
<path d="M30.1993 152.339C29.5601 152.339 28.9662 151.951 28.7146 151.35C28.2056 150.133 26.9562 147.033 26.3448 144.528C26.2394 144.096 26.3175 143.634 26.5592 143.262C26.8 142.891 27.1877 142.633 27.6226 142.555C31.899 141.784 53.4484 137.857 57.7113 136.192C58.4544 135.902 59.3111 136.207 59.7018 136.902C60.4324 138.203 61.7493 140.664 62.3623 142.531C62.5001 142.951 62.4599 143.414 62.2525 143.803C62.0462 144.189 61.6859 144.477 61.2643 144.594C56.9839 145.784 35.3755 151.751 30.3802 152.328C30.3198 152.335 30.2592 152.339 30.1993 152.339ZM28.0798 144.253C28.6577 146.549 29.7819 149.359 30.2875 150.574C35.3001 149.947 56.1161 144.206 60.6549 142.945C60.0662 141.227 58.8158 138.906 58.2359 137.868C53.6332 139.594 32.671 143.425 28.0798 144.253ZM27.9325 144.28C27.9328 144.28 27.9328 144.28 27.9325 144.28C27.9323 144.28 27.9325 144.28 27.9325 144.28Z" fill="#312F2F"/>
<path d="M33.5629 97.5919H17.7102C17.3477 97.5919 17.054 97.2977 17.054 96.9348V92.1102C17.054 91.7473 17.3477 91.4531 17.7102 91.4531H33.5631C33.9256 91.4531 34.2194 91.7473 34.2194 92.1102V96.9348C34.2192 97.2977 33.9254 97.5919 33.5629 97.5919Z" fill="#AEAEAE"/>
<path d="M79.8303 46.6587H29.1331V74.0196C29.1331 74.0196 28.5602 79.3558 27.1282 80.5033C25.6962 81.6507 35.7209 80.5033 37.1529 77.9784C37.1639 77.9594 37.1722 77.9407 37.1825 77.9219H79.8303V46.6587Z" fill="#AEAEAE"/>
<path d="M28.0023 81.8229C27.7516 81.8229 27.535 81.8124 27.36 81.7911C26.6899 81.7105 26.2828 81.4341 26.1507 80.9694C26.0945 80.7723 26.0241 80.2652 26.5812 79.8189C27.2843 79.2557 27.9959 76.3563 28.258 73.9721V45.7825H80.705V78.7979H37.6418C35.913 80.8514 30.4031 81.8227 28.0023 81.8229ZM30.0081 47.5349V74.0665L30.003 74.1132C29.9208 74.8792 29.5209 78.1475 28.5159 80.0759C30.8151 79.9434 35.6218 78.9031 36.392 77.5456L36.4102 77.5092L36.6572 77.0455H78.955V47.5349H30.0081Z" fill="#312F2F"/>
<path d="M58.0654 68.6142L58.9306 70.4376C58.1341 70.688 57.3153 70.8012 56.4725 70.8012C52.6046 70.8012 49.3073 68.182 48.3052 64.5824H45.9395V62.7598H48.0105C48.0105 62.6236 48.0105 62.4639 48.0105 62.3268C48.0105 62.1673 48.0105 62.0308 48.0105 61.8714H45.9395V60.0488H48.3052C49.3073 56.4725 52.6046 53.8291 56.4725 53.8291C57.3376 53.8291 58.1785 53.9664 58.975 54.2168L58.1118 56.0394C57.5877 55.9031 57.041 55.8344 56.4725 55.8344C53.6975 55.8344 51.3319 57.5881 50.3984 60.0488H55.1536V61.8714H50.011C50.011 62.0308 49.9887 62.1673 49.9887 62.3268C49.9887 62.4641 50.011 62.6236 50.011 62.7598H55.1533V64.5824H50.3982C51.3319 67.0431 53.6973 68.8201 56.4722 68.8201C57.0187 68.8201 57.5651 68.7515 58.0654 68.6142Z" fill="white"/>
<path d="M72.1339 75.2048H37.1159L37.0065 74.9274C36.2205 72.9325 34.6442 71.2957 32.6815 70.4368L32.4192 70.322V54.2585L32.6815 54.1437C34.6442 53.2846 36.2208 51.6478 37.0065 49.6528L37.1159 49.3755H72.1339L72.2431 49.6528C73.0002 51.5742 74.4396 53.1253 76.2964 54.0206L76.544 54.14V70.44L76.2964 70.5594C74.4396 71.4549 73.0002 73.0061 72.2431 74.9272L72.1339 75.2048ZM37.7059 74.3285H71.5439C72.3715 72.4144 73.8216 70.8556 75.6692 69.8942V54.6861C73.8216 53.7249 72.3715 52.1661 71.5439 50.2517H37.7059C36.8407 52.2462 35.2549 53.8907 33.2942 54.8267V69.7537C35.2549 70.6896 36.8407 72.334 37.7059 74.3285Z" fill="#312F2F"/>
<path d="M55.0348 75.2047C47.9234 75.2047 42.1379 69.4113 42.1379 62.29C42.1379 55.1687 47.9234 49.3752 55.0348 49.3752C62.1463 49.3752 67.9318 55.1687 67.9318 62.29C67.9318 69.4113 62.1463 75.2047 55.0348 75.2047ZM55.0348 50.2517C48.4058 50.2517 43.013 55.6521 43.013 62.2902C43.013 68.9283 48.4058 74.3287 55.0348 74.3287C61.6638 74.3287 67.0568 68.9283 67.0568 62.2902C67.0568 55.6521 61.6638 50.2517 55.0348 50.2517Z" fill="#312F2F"/>
<path d="M25.6356 121.975C27.347 121.975 28.7343 120.586 28.7343 118.872C28.7343 117.158 27.347 115.769 25.6356 115.769C23.9243 115.769 22.5369 117.158 22.5369 118.872C22.5369 120.586 23.9243 121.975 25.6356 121.975Z" fill="white"/>
</svg>
